<svg width="192" height="20" viewBox="0 0 192 20" fill="none" xmlns="http://www.w3.org/2000/svg">
<path d="M0.774946 14.7194C0.358946 14.2601 0.272279 13.6924 0.514946 13.0164L2.49095 7.28345C2.63828 6.81545 2.88961 6.38645 3.24495 5.99645L2.02295 4.89145H13.8009C14.2863 4.89145 14.6503 5.02578 14.8929 5.29445C15.1269 5.57178 15.1789 5.90545 15.0489 6.29545L14.2429 8.64845H10.7069L11.0709 7.54345C11.0969 7.46545 11.0666 7.42645 10.9799 7.42645H6.20895C6.20028 7.42645 6.19595 7.43078 6.19595 7.43945C6.19595 7.43945 6.19161 7.43945 6.18295 7.43945H4.37595L5.58495 8.53145L4.15495 12.6784C4.11161 12.8084 4.17228 12.8734 4.33695 12.8734H9.09495C9.19028 12.8734 9.25095 12.8344 9.27695 12.7564L9.65395 11.6644H13.1899L12.3839 14.0174C12.3059 14.2254 12.1846 14.4161 12.0199 14.5894C11.8639 14.7628 11.6819 14.9144 11.4739 15.0444C11.2746 15.1658 11.0579 15.2611 10.8239 15.3304C10.5986 15.3911 10.3776 15.4214 10.1609 15.4214H2.63395C1.81061 15.4214 1.19095 15.1874 0.774946 14.7194ZM16.3089 14.7324C15.8929 14.2644 15.8063 13.6924 16.0489 13.0164L18.0249 7.28345C18.2503 6.63345 18.6489 6.08311 19.2209 5.63245L18.3889 4.89145H28.1129C28.9449 4.89145 29.5646 5.12111 29.9719 5.58045C30.3793 6.04845 30.4659 6.61611 30.2319 7.28345L28.2559 13.0164C28.1259 13.3804 27.9483 13.7141 27.7229 14.0174C27.4976 14.3121 27.2333 14.5634 26.9299 14.7714C26.6266 14.9794 26.2973 15.1398 25.9419 15.2524C25.5866 15.3651 25.2139 15.4214 24.8239 15.4214H18.1679C17.3359 15.4214 16.7163 15.1918 16.3089 14.7324ZM19.6889 12.6784C19.6456 12.8084 19.7019 12.8734 19.8579 12.8734H24.5379C24.6853 12.8734 24.7806 12.8084 24.8239 12.6784L26.5789 7.62145C26.6309 7.49145 26.5789 7.42645 26.4229 7.42645H21.7429C21.7343 7.42645 21.7299 7.43078 21.7299 7.43945C21.7299 7.43945 21.7256 7.43945 21.7169 7.43945H19.8579L21.1059 8.57045L19.6889 12.6784ZM29.6473 19.4904C29.8813 18.8231 30.124 18.1211 30.3753 17.3844C30.6267 16.6564 30.8823 15.9241 31.1423 15.1874C31.4023 14.4421 31.658 13.7054 31.9093 12.9774C32.1607 12.2494 32.399 11.5561 32.6243 10.8974C33.1617 9.35478 33.6903 7.82511 34.2103 6.30845L32.6373 4.89145H38.2273L41.2433 11.1444C41.7893 9.54978 42.3007 8.06778 42.7773 6.69845C42.9767 6.11778 43.1803 5.52845 43.3883 4.93045C43.5963 4.33245 43.7913 3.76911 43.9733 3.24045C44.1553 2.71178 44.32 2.23511 44.4673 1.81045C44.6147 1.38578 44.7317 1.05645 44.8183 0.822447H48.3543L43.2973 15.4214H39.9433L36.7583 9.15545C36.2037 10.7501 35.688 12.2321 35.2113 13.6014C35.0033 14.1908 34.7953 14.7844 34.5873 15.3824C34.388 15.9718 34.1973 16.5308 34.0153 17.0594C33.8333 17.5968 33.6687 18.0778 33.5213 18.5024C33.374 18.9271 33.2613 19.2564 33.1833 19.4904H29.6473ZM45.7958 19.4904C46.0298 18.8231 46.2724 18.1211 46.5238 17.3844C46.7751 16.6564 47.0308 15.9241 47.2908 15.1874C47.5508 14.4421 47.8064 13.7054 48.0578 12.9774C48.3091 12.2494 48.5474 11.5561 48.7728 10.8974C49.3101 9.35478 49.8388 7.82511 50.3588 6.30845L48.7858 4.89145H54.3758L57.3918 11.1444C57.9378 9.54978 58.4491 8.06778 58.9258 6.69845C59.1251 6.11778 59.3288 5.52845 59.5368 4.93045C59.7448 4.33245 59.9398 3.76911 60.1218 3.24045C60.3038 2.71178 60.4684 2.23511 60.6158 1.81045C60.7631 1.38578 60.8801 1.05645 60.9668 0.822447H64.5028L59.4458 15.4214H56.0918L52.9068 9.15545C52.3521 10.7501 51.8364 12.2321 51.3598 13.6014C51.1518 14.1908 50.9438 14.7844 50.7358 15.3824C50.5364 15.9718 50.3458 16.5308 50.1638 17.0594C49.9818 17.5968 49.8171 18.0778 49.6698 18.5024C49.5224 18.9271 49.4098 19.2564 49.3318 19.4904H45.7958ZM65.6902 15.4214C65.4129 15.4214 65.1572 15.3651 64.9232 15.2524C64.6979 15.1398 64.5072 14.9924 64.3512 14.8104C64.2039 14.6284 64.1042 14.4204 64.0522 14.1864C64.0089 13.9524 64.0262 13.7141 64.1042 13.4714C64.2342 13.1074 64.3729 12.7174 64.5202 12.3014C64.6416 11.9461 64.7759 11.5474 64.9232 11.1054C65.0792 10.6634 65.2396 10.2084 65.4042 9.74045C65.5516 9.29845 65.6989 8.86945 65.8462 8.45345C65.9936 8.02878 66.1236 7.65178 66.2362 7.32245C66.3662 6.94111 66.4919 6.57711 66.6132 6.23045L65.1182 4.89145H77.9102L77.0262 7.42645L69.7332 7.43945H68.2382L69.3822 8.46645L69.1612 9.09045H76.4542C76.3329 9.42845 76.2072 9.78378 76.0772 10.1564C75.9559 10.5291 75.8346 10.8844 75.7132 11.2224H67.2762L68.1472 12.0154L67.8482 12.8734H75.1412L74.2572 15.4214H65.6902ZM79.0162 14.7194C78.6002 14.2601 78.5135 13.6924 78.7562 13.0164L80.7322 7.28345C80.8795 6.81545 81.1308 6.38645 81.4862 5.99645L80.2642 4.89145H92.0422C92.5275 4.89145 92.8915 5.02578 93.1342 5.29445C93.3682 5.57178 93.4202 5.90545 93.2902 6.29545L92.4842 8.64845H88.9482L89.3122 7.54345C89.3382 7.46545 89.3078 7.42645 89.2212 7.42645H84.4502C84.4415 7.42645 84.4372 7.43078 84.4372 7.43945C84.4372 7.43945 84.4328 7.43945 84.4242 7.43945H82.6172L83.8262 8.53145L82.3962 12.6784C82.3528 12.8084 82.4135 12.8734 82.5782 12.8734H87.3362C87.4315 12.8734 87.4922 12.8344 87.5182 12.7564L87.8952 11.6644H91.4312L90.6252 14.0174C90.5472 14.2254 90.4258 14.4161 90.2612 14.5894C90.1052 14.7628 89.9232 14.9144 89.7152 15.0444C89.5158 15.1658 89.2992 15.2611 89.0652 15.3304C88.8398 15.3911 88.6188 15.4214 88.4022 15.4214H80.8752C80.0518 15.4214 79.4322 15.1874 79.0162 14.7194ZM93.8221 4.89145H108.161L107.29 7.42645L102.922 7.43945H101.271L102.532 8.57045C102.281 9.28978 102.021 10.0351 101.752 10.8064C101.639 11.1358 101.518 11.4868 101.388 11.8594C101.258 12.2321 101.124 12.6178 100.985 13.0164C100.846 13.4064 100.708 13.8051 100.569 14.2124C100.43 14.6198 100.292 15.0228 100.153 15.4214H96.6171C96.7731 14.9708 96.9291 14.5114 97.0851 14.0434C97.2498 13.5754 97.4101 13.1118 97.5661 12.6524C97.7308 12.1931 97.8868 11.7468 98.0341 11.3134C98.1901 10.8801 98.3331 10.4684 98.4631 10.0784C98.7751 9.16845 99.0828 8.28445 99.3861 7.42645H95.0181L95.4081 6.30845L93.8221 4.89145ZM108.295 4.89145H113.664L114.106 11.4564C115.137 10.2258 116.103 9.07311 117.005 7.99845C117.386 7.54778 117.772 7.08845 118.162 6.62045C118.552 6.15245 118.916 5.71045 119.254 5.29445C119.6 4.87845 119.912 4.50578 120.19 4.17645C120.467 3.84711 120.684 3.58711 120.84 3.39645C120.892 3.72578 120.948 4.08978 121.009 4.48845C121.078 4.88711 121.147 5.30311 121.217 5.73645C121.286 6.16978 121.355 6.60745 121.425 7.04945C121.494 7.49145 121.563 7.92045 121.633 8.33645C121.789 9.30711 121.949 10.2994 122.114 11.3134C122.625 10.6461 123.158 9.95278 123.713 9.23345C124.189 8.61811 124.718 7.93345 125.299 7.17945C125.888 6.41678 126.477 5.65411 127.067 4.89145H130.837C130.386 5.45478 129.922 6.03978 129.446 6.64645C128.969 7.24445 128.492 7.84245 128.016 8.44045C127.539 9.03845 127.071 9.62778 126.612 10.2084C126.152 10.7804 125.715 11.3264 125.299 11.8464C124.328 13.0598 123.379 14.2514 122.452 15.4214H119.059L118.526 10.1954L114.366 15.4214H110.973C110.895 14.6761 110.817 13.9178 110.739 13.1464C110.704 12.8258 110.665 12.4834 110.622 12.1194C110.587 11.7554 110.548 11.3914 110.505 11.0274C110.47 10.6548 110.435 10.2864 110.401 9.92245C110.366 9.54978 110.331 9.19878 110.297 8.86945C110.245 8.33211 110.197 7.86411 110.154 7.46545C110.119 7.06678 110.093 6.78511 110.076 6.62045C110.067 6.59445 110.063 6.55978 110.063 6.51645C110.063 6.49911 110.058 6.48611 110.05 6.47745L108.295 4.89145ZM122.587 19.4904C123.081 18.9184 123.627 18.2858 124.225 17.5924C124.815 16.9078 125.43 16.1928 126.071 15.4474C126.713 14.7108 127.358 13.9654 128.008 13.2114C128.667 12.4488 129.3 11.7164 129.906 11.0144C131.336 9.36778 132.797 7.68211 134.287 5.95745L133.104 4.89145H138.694C138.868 5.85345 139.037 6.81111 139.201 7.76445C139.271 8.17178 139.344 8.60078 139.422 9.05145C139.509 9.49345 139.591 9.93978 139.669 10.3904C139.747 10.8411 139.825 11.2874 139.903 11.7294C139.99 12.1628 140.068 12.5744 140.137 12.9644C140.198 13.3284 140.254 13.6578 140.306 13.9524C140.358 14.2384 140.406 14.4941 140.449 14.7194C140.493 14.9794 140.532 15.2134 140.566 15.4214H136.055L133.104 12.7434H136.419L135.678 8.58345V8.59645L134.716 9.72745C133.685 10.9494 132.671 12.1498 131.674 13.3284C131.25 13.8311 130.808 14.3554 130.348 14.9014C129.889 15.4474 129.43 15.9891 128.97 16.5264C128.52 17.0638 128.082 17.5838 127.657 18.0864C127.233 18.5978 126.838 19.0658 126.474 19.4904H122.587ZM140.693 15.4214L143.852 6.28245L142.305 4.89145H147.869L145.113 12.8734H151.184L150.3 15.4214H140.693ZM151.319 15.4214L154.478 6.28245L152.931 4.89145H158.495L155.739 12.8734H161.81L160.926 15.4214H151.319ZM164.003 15.4214C163.725 15.4214 163.47 15.3651 163.236 15.2524C163.01 15.1398 162.82 14.9924 162.664 14.8104C162.516 14.6284 162.417 14.4204 162.365 14.1864C162.321 13.9524 162.339 13.7141 162.417 13.4714C162.547 13.1074 162.685 12.7174 162.833 12.3014C162.954 11.9461 163.088 11.5474 163.236 11.1054C163.392 10.6634 163.552 10.2084 163.717 9.74045C163.864 9.29845 164.011 8.86945 164.159 8.45345C164.306 8.02878 164.436 7.65178 164.549 7.32245C164.679 6.94111 164.804 6.57711 164.926 6.23045L163.431 4.89145H176.223L175.339 7.42645L168.046 7.43945H166.551L167.695 8.46645L167.474 9.09045H174.767C174.645 9.42845 174.52 9.78378 174.39 10.1564C174.268 10.5291 174.147 10.8844 174.026 11.2224H165.589L166.46 12.0154L166.161 12.8734H173.454L172.57 15.4214H164.003ZM176.926 4.89145H191.265L190.394 7.42645L186.026 7.43945H184.375L185.636 8.57045C185.384 9.28978 185.124 10.0351 184.856 10.8064C184.743 11.1358 184.622 11.4868 184.492 11.8594C184.362 12.2321 184.227 12.6178 184.089 13.0164C183.95 13.4064 183.811 13.8051 183.673 14.2124C183.534 14.6198 183.395 15.0228 183.257 15.4214H179.721C179.877 14.9708 180.033 14.5114 180.189 14.0434C180.353 13.5754 180.514 13.1118 180.67 12.6524C180.834 12.1931 180.99 11.7468 181.138 11.3134C181.294 10.8801 181.437 10.4684 181.567 10.0784C181.879 9.16845 182.186 8.28445 182.49 7.42645H178.122L178.512 6.30845L176.926 4.89145Z" fill="black"/>
</svg>
