<svg width="191" height="226" viewBox="0 0 191 226" fill="none" xmlns="http://www.w3.org/2000/svg">
<path d="M81.9898 224.329C82.6992 225.664 84.3893 225.124 84.5332 225.049L99.7466 164.265L110.121 182.367H111.03L120.278 130.912L103.955 106.077L117.18 77.423L125.18 84.7716L146.112 89.6903L166.798 105.047L181.904 104.162H182.739L190.292 96.304V87.306C190.337 87.2289 190.361 87.1414 190.361 87.0523C190.361 86.9632 190.337 86.8757 190.292 86.7985L176.404 73.4817L166.97 53.5359L164.412 39.4985L163.718 38.7636L154.824 29.99L154.377 29.5403C153.666 28.9292 153.03 28.2398 152.482 27.486L146.67 21.7573L149.846 0.761017C149.907 0.597048 149.907 0.417485 149.846 0.253517C149.752 0.201746 149.645 0.174561 149.537 0.174561C149.429 0.174561 149.323 0.201746 149.229 0.253517L141.23 6.71705L136.775 10.3913L121.669 2.53321C121.584 2.49609 121.492 2.4769 121.399 2.4769C121.306 2.4769 121.214 2.49609 121.13 2.53321C121.077 2.60796 121.049 2.69641 121.049 2.78696C121.049 2.87751 121.077 2.96595 121.13 3.04071L123.703 13.8535L93.939 2.45608H93.4914C93.454 2.52268 93.4344 2.59737 93.4344 2.67328C93.4344 2.74919 93.454 2.82391 93.4914 2.89051L95.5268 11.4246L58.7331 20.0927C58.6089 20.048 58.4724 20.048 58.3482 20.0927V20.5424L64.2361 26.1249L28.2875 46.4797C28.2187 46.5472 28.1801 46.6384 28.1801 46.7334C28.1801 46.8285 28.2187 46.9197 28.2875 46.9872L34.453 59.2545L0.541792 86.8219C0.489269 86.8966 0.461182 86.9851 0.461182 87.0756C0.461182 87.1662 0.489269 87.2546 0.541792 87.3294C0.637003 87.3598 0.739735 87.3598 0.834946 87.3294L6.72294 87.9891L4.1952 125.961V126.469C4.27703 126.505 4.36599 126.524 4.456 126.524C4.54602 126.524 4.63498 126.505 4.71681 126.469L12.2698 120.365L22.2577 167.22H22.7793L29.4997 156.633L48.9831 173.473L58.0467 195.685L74.3701 190.813L81.9231 224.331L81.9898 224.329ZM110.115 56.3952L96.6576 29.9849L117.405 31.8119L129.952 42.0249L110.115 56.3952ZM130.724 42.7323L140.389 50.8158L111.456 56.245L130.724 42.7323ZM64.9883 27.282L93.9974 29.786L68.7648 48.8943L64.9883 27.282ZM95.1376 30.1615L108.579 56.4663L69.5358 49.477L95.1376 30.1615ZM95.8168 12.3148L116.518 31.0314L95.8168 29.2765V12.3148ZM108.656 57.4275L86.9066 94.7551L69.5358 50.0789L108.656 57.4275ZM72.8543 148.114L40.7572 130.913L86.0897 97.3352L72.8543 148.114ZM40.7625 129.668L52.0919 83.7322L85.8644 96.0746L40.7625 129.668ZM28.9865 103.724L8.27002 88.2956L50.1964 83.9758L28.9865 103.724ZM8.38269 86.8219L35.1259 59.7072L67.4952 50.3641L51.3878 82.5629L8.38269 86.8219ZM63.9868 27.8088L67.7936 49.479L36.2881 58.477L63.9868 27.8088ZM123.13 14.8665L117.689 30.5229L96.7098 11.5068L94.9071 3.49849L123.13 14.8665ZM135.292 11.042L129.85 15.3912L124.501 14.2067L122.082 3.84359L135.292 11.042ZM140.656 8.04264L145.188 21.5421L130.159 23.7599V16.4864L136.124 11.7159L140.656 8.04264ZM151.446 28.094L141.365 50.0789L131.315 41.6209L130.48 24.4197L145.586 22.14L151.446 28.094ZM162.929 39.3412L152.894 47.9494L142.49 50.289L152.679 28.9039L162.929 39.3412ZM165.272 53.0934L153.726 48.3848L162.976 40.4516L165.272 53.0934ZM174.197 72.5895L152.617 56.9778L155.114 53.0193L154.051 49.7053L166.058 54.5641L174.197 72.5895ZM175.923 90.3013V75.0641L188.994 87.5567V95.9701L182.273 103.319L175.923 90.3013ZM146.637 67.0852L151.615 58.0872L175.184 74.2541V89.9075L146.867 89.0234L146.637 67.0852ZM145.881 66.4254L111.662 57.4275L141.873 51.8338L151.538 57.5026L145.881 66.4254ZM109.843 58.1177L145.65 67.3704L145.834 88.5159L125.519 83.8073L117.211 76.0933L109.843 58.1177ZM102.599 105.732L87.1997 95.9701L108.348 59.6605L102.599 105.732ZM118.907 131.015H99.7466L103.734 107.802L118.907 131.015ZM99.6548 135.799L109.473 179.455L99.6548 162.48V135.799ZM98.5907 131.015L75.0993 146.9L102.444 108.312L98.5907 131.015ZM98.5907 161.668L74.1135 148.726L98.5907 132.233V161.668ZM75.9318 191.062L98.5907 164.758L83.4848 222.811L75.9318 191.062ZM74.0363 149.91L98.6982 162.913L75.5781 189.818L74.0363 149.91ZM51.5474 174.791L74.6684 190.657L51.5474 174.791ZM41.5741 131.959L73.3122 149.161L50.6335 172.454L41.5741 131.959ZM31.2294 156.062L40.7551 132.608L49.8959 172.139L31.2294 156.062ZM20.1931 149.16L39.6149 132.663L30.2425 155.954L23.7996 165.972L20.1931 149.16ZM13.9337 119.736L29.0397 105.564L19.4409 146.646L13.9337 119.736ZM8.38269 90.1358L28.421 104.968L13.0073 118.9L6.05526 124.779L8.38269 90.1358Z" fill="white"/>
</svg>
