<svg width="79" height="93" viewBox="0 0 79 93" fill="none" xmlns="http://www.w3.org/2000/svg">
<path d="M33.9477 91.9684C34.2346 92.5124 34.9294 92.2932 34.991 92.2658L41.1909 67.4693L45.442 74.8524H45.8124L49.6014 53.8703L42.9466 43.7386L48.338 32.0489L51.6044 35.0462L60.138 37.0548L68.5798 43.3194L74.7411 42.9591H75.0802L78.1608 39.7517V36.0977C78.1773 36.065 78.1859 36.0291 78.1859 35.9926C78.1859 35.9562 78.1773 35.9203 78.1608 35.8876L72.4617 30.4624L68.6101 22.3089L67.5668 16.5833L67.2904 16.2839L63.685 12.7172L63.5003 12.5375C63.2114 12.2874 62.9531 12.0057 62.7304 11.6981L60.3581 9.36362L61.6517 0.79093C61.6662 0.757687 61.6736 0.721965 61.6736 0.685878C61.6736 0.64979 61.6662 0.614068 61.6517 0.580825C61.6143 0.5599 61.5718 0.548889 61.5286 0.548889C61.4854 0.548889 61.443 0.5599 61.4055 0.580825L58.1402 3.21982L56.3219 4.71898L50.1606 1.51158C50.1264 1.49754 50.0897 1.49031 50.0526 1.49031C50.0155 1.49031 49.9788 1.49754 49.9446 1.51158C49.9222 1.54229 49.9102 1.579 49.9102 1.61663C49.9102 1.65427 49.9222 1.69098 49.9446 1.72169L50.9878 6.1278L38.8467 1.47301H38.661C38.6477 1.50117 38.6408 1.53182 38.6408 1.56284C38.6408 1.59386 38.6477 1.62451 38.661 1.65267L39.4956 5.13005L24.4606 8.66733C24.4366 8.65631 24.4104 8.65059 24.3839 8.65059C24.3574 8.65059 24.3312 8.65631 24.3073 8.66733V8.84698L26.7067 11.1257L12.042 19.3979C12.0092 19.4217 11.9875 19.4573 11.9817 19.4967C11.9758 19.5361 11.9862 19.5761 12.0107 19.608C12.0201 19.6192 12.0306 19.6294 12.042 19.6385L14.5374 24.6434L0.674981 35.8815C0.656027 35.9134 0.646057 35.9497 0.646057 35.9866C0.646057 36.0234 0.656027 36.0597 0.674981 36.0916C0.714889 36.1048 0.75817 36.1048 0.798078 36.0916L3.19751 36.3606L2.21061 51.8617V52.0718C2.24422 52.0878 2.28116 52.0961 2.31859 52.0961C2.35602 52.0961 2.39296 52.0878 2.42656 52.0718L5.50722 49.584L9.60502 68.6782H9.82097L12.5626 64.3614L20.511 71.2258L24.204 80.2837L30.8629 78.2994L33.9436 91.9684H33.9477ZM45.441 23.4762L39.9254 12.7172L48.3923 13.4662L53.5041 17.6278L45.441 23.4762ZM53.8505 17.9008L57.7939 21.1975L45.9939 23.4163L53.8505 17.9008ZM27.0155 11.6078L38.8467 12.6228L28.5563 20.416L27.0155 11.6078ZM39.3089 12.7771L44.7921 23.5076L28.8641 20.6565L39.3089 12.7771ZM39.5854 5.4985L48.0272 13.1364L39.5854 12.4167V5.4985ZM44.8234 23.8974L35.9507 39.1224L28.8641 20.8981L44.8234 23.8974ZM30.2182 60.886L17.1549 53.8724L35.6399 40.1699L30.2182 60.886ZM17.1288 53.3608L21.7493 34.6259L35.5199 39.6624L17.1288 53.3608ZM12.3205 42.7835L3.87874 36.4905L20.9773 34.7528L12.3205 42.7835ZM3.94029 35.8815L14.8462 24.818L28.0326 21.0107L21.4707 34.1398L3.94029 35.8815ZM26.6149 11.8159L28.1557 20.6281L15.3083 24.3156L26.6149 11.8159ZM50.7385 6.53786L48.5206 12.9222L39.9536 5.16761L39.215 1.90033L50.7385 6.53786ZM55.6991 4.97882L53.4801 6.75101L51.2998 6.27092L50.3139 2.04446L55.6991 4.97882ZM57.8898 3.72022L59.7385 9.23573L53.5771 10.1655V7.16919L56.011 5.2214L57.8898 3.72022ZM62.3267 11.9031L58.1673 20.896L54.0695 17.445L53.7305 10.4304L59.8928 9.50166L62.3267 11.9031ZM67.0056 16.495L62.9078 20.0018L58.594 20.9904L62.7534 12.2685L67.0056 16.495ZM67.9601 22.0998L63.2468 20.1815L67.0358 16.9447L67.9601 22.0998ZM71.5958 30.0432L62.7534 23.7188L63.7705 22.0998L63.3439 20.7479L68.247 22.7261L71.5958 30.0432ZM72.3041 37.267V31.0897L77.6361 36.186V39.6035L74.8945 42.6008L72.3041 37.267ZM60.3508 27.792L62.3841 24.138L71.9964 30.7355V37.1208L60.4426 36.7605L60.3508 27.792ZM60.0431 27.522L46.0555 23.8954L58.3791 21.6177L62.3225 23.9258L60.0431 27.522ZM45.3471 24.1349L59.9523 27.9117L60.0295 36.5341L51.7421 34.6158L48.3526 31.4693L45.3471 24.1349ZM42.3896 43.559L36.0738 39.6005L44.7003 24.7926L42.3896 43.559ZM49.0443 53.8703H41.1877L42.8204 44.3984L49.0443 53.8703ZM41.1877 55.8181L45.1917 73.6233L41.1867 66.6999L41.1877 55.8181ZM40.7569 53.8703L31.1748 60.343L42.328 44.6105L40.7569 53.8703ZM40.7569 66.3701L30.7742 61.0921L40.7569 54.3474V66.3701ZM31.5139 78.3592L40.7569 67.6287L34.5945 91.3086L31.5139 78.3592ZM30.744 61.5742L40.7871 66.8796L31.3292 77.8497L30.744 61.5742ZM21.501 71.7648L30.9286 78.2395L21.501 71.7648ZM17.471 54.2855L30.407 61.3001L21.164 70.832L17.471 54.2855ZM13.2501 64.1178L17.1288 54.5575L20.8563 70.6838L13.2501 64.1178ZM8.75167 61.3001L16.6698 54.5859L12.8495 64.0873L10.231 68.1646L8.75167 61.3001ZM6.19471 49.31L12.356 43.5245L8.44392 60.2811L6.19471 49.31ZM3.93716 37.2315L12.1213 43.2778L5.8494 48.9547L3.01494 51.3521L3.93716 37.2315Z" fill="url(#paint0_linear_1_12031)"/>
<defs>
<linearGradient id="paint0_linear_1_12031" x1="-1117.87" y1="1017.69" x2="-991.941" y2="1017.69" gradientUnits="userSpaceOnUse">
<stop stop-color="#C8A23D"/>
<stop offset="0.1" stop-color="#D5B54F"/>
<stop offset="0.293" stop-color="#F7E57D"/>
<stop offset="0.31" stop-color="#EDD770"/>
<stop offset="0.365" stop-color="#D3B14C"/>
<stop offset="0.42" stop-color="#BE922F"/>
<stop offset="0.473" stop-color="#AF7D1B"/>
<stop offset="0.525" stop-color="#A7700F"/>
<stop offset="0.573" stop-color="#A46C0B"/>
<stop offset="0.635" stop-color="#A97412"/>
<stop offset="0.733" stop-color="#B98B28"/>
<stop offset="0.855" stop-color="#D2B04B"/>
<stop offset="0.995" stop-color="#F5E37B"/>
<stop offset="1" stop-color="#F7E57D"/>
</linearGradient>
</defs>
</svg>
