<svg width="59" height="42" viewBox="0 0 59 42" fill="none" xmlns="http://www.w3.org/2000/svg">
<path d="M42.1201 0.50708H4.84406L0.504089 6.25208L16.0781 41.4861H52.4611L58.4611 34.209L42.1201 0.50708Z" fill="white"/>
<path d="M30.065 22.3771L37.886 15.9161C38.0555 15.7764 38.1849 15.5943 38.2609 15.3883C38.337 15.1823 38.3569 14.9599 38.3189 14.7436C38.2809 14.5273 38.1861 14.325 38.0444 14.1574C37.9026 13.9897 37.7189 13.8626 37.512 13.7891L24.6121 9.2021C24.3819 9.12013 24.1325 9.10787 23.8954 9.16688C23.6583 9.22589 23.4439 9.35353 23.279 9.53383C23.114 9.71412 23.006 9.93907 22.9683 10.1805C22.9306 10.4219 22.965 10.6691 23.0671 10.8911L28.143 21.9381C28.2222 22.1115 28.3403 22.2644 28.4882 22.3848C28.6361 22.5053 28.8096 22.59 28.9955 22.6325C29.1814 22.6749 29.3746 22.6739 29.5601 22.6297C29.7456 22.5854 29.9183 22.499 30.065 22.3771Z" fill="black"/>
<path d="M4.84308 0.50708L20.543 34.084H57.9581" stroke="black" stroke-linecap="round" stroke-linejoin="round"/>
</svg>
