<svg width="59" height="42" viewBox="0 0 59 42" fill="none" xmlns="http://www.w3.org/2000/svg">
<path d="M16.957 0.50708H54.234L58.574 6.25208L43 41.4861H6.617L0.617004 34.209L16.957 0.50708Z" fill="white"/>
<path d="M29.013 22.3772L21.191 15.9162C21.0216 15.7764 20.8923 15.5942 20.8163 15.3881C20.7403 15.1821 20.7204 14.9596 20.7585 14.7434C20.7967 14.5271 20.8915 14.3248 21.0334 14.1571C21.1752 13.9895 21.359 13.8625 21.566 13.7891L34.466 9.20217C34.6961 9.12049 34.9452 9.10843 35.1822 9.16757C35.4191 9.2267 35.6333 9.35439 35.7981 9.53463C35.9629 9.71487 36.0709 9.93966 36.1086 10.1809C36.1462 10.4222 36.112 10.6692 36.01 10.8911L30.935 21.9381C30.8558 22.1116 30.7377 22.2645 30.5898 22.3849C30.442 22.5053 30.2684 22.5901 30.0825 22.6325C29.8966 22.675 29.7034 22.674 29.5179 22.6297C29.3324 22.5854 29.1597 22.499 29.013 22.3772Z" fill="black"/>
<path d="M54.234 0.50708L38.534 34.084H1.117" stroke="black" stroke-linecap="round" stroke-linejoin="round"/>
</svg>
