<svg width="370" height="414" viewBox="0 0 370 414" fill="none" xmlns="http://www.w3.org/2000/svg">
<path d="M319.6 413.65H16.5219C14.3294 413.65 12.1603 413.199 10.1492 412.326C8.13809 411.453 6.32795 410.175 4.83109 408.573C3.33422 406.971 2.18256 405.079 1.44766 403.013C0.712764 400.947 0.410309 398.753 0.558991 396.565L25.873 24.1001C26.3038 17.7786 29.1189 11.8566 33.749 7.53128C38.3791 3.20597 44.4789 0.800083 50.815 0.800049H353.9C356.093 0.800072 358.262 1.25074 360.273 2.12405C362.284 2.99736 364.094 4.27467 365.591 5.87674C367.088 7.47881 368.239 9.37146 368.974 11.4372C369.709 13.5029 370.012 15.6976 369.863 17.8851L344.547 390.345C344.117 396.668 341.302 402.592 336.671 406.919C332.039 411.245 325.938 413.651 319.6 413.65Z" fill="#C67500"/>
</svg>
