<svg width="880" height="165" viewBox="0 0 880 165" fill="none" xmlns="http://www.w3.org/2000/svg">
<path d="M0.537595 12.22H16.1936L17.5236 31.41C20.5636 27.8127 23.3883 24.4433 25.9976 21.302C27.1123 19.9847 28.2269 18.642 29.3416 17.274C30.4816 15.906 31.5583 14.614 32.5716 13.398C33.5849 12.182 34.4969 11.0927 35.3076 10.13C36.1183 9.16733 36.7516 8.40733 37.2076 7.85C37.3596 8.81267 37.5243 9.87667 37.7016 11.042C37.9043 12.2073 38.0943 13.4233 38.2716 14.69C38.4743 15.9567 38.6769 17.236 38.8796 18.528C39.0823 19.82 39.2849 21.074 39.4876 22.29C39.9436 25.1273 40.4123 28.028 40.8936 30.992C42.3883 29.0413 43.9463 27.0147 45.5676 24.912C46.9609 23.1133 48.5063 21.112 50.2036 18.908C51.9263 16.6787 53.6489 14.4493 55.3716 12.22H66.3916C65.0743 13.8667 63.7189 15.5767 62.3256 17.35C60.9323 19.098 59.5389 20.846 58.1456 22.594C56.7523 24.342 55.3843 26.0647 54.0416 27.762C52.6989 29.434 51.4196 31.03 50.2036 32.55C47.3663 36.0967 44.5923 39.58 41.8816 43H31.9636L30.4056 27.724L18.2456 43H8.3276C8.0996 40.8213 7.8716 38.6047 7.6436 36.35C7.54226 35.4127 7.44093 34.412 7.3396 33.348C7.23826 32.284 7.12426 31.22 6.9976 30.156C6.89626 29.0667 6.79493 27.99 6.6936 26.926C6.59226 25.8367 6.49093 24.8107 6.3896 23.848C6.21226 22.2773 6.06026 20.9093 5.9336 19.744C5.83226 18.5787 5.75626 17.7553 5.7056 17.274C5.68026 17.198 5.6676 17.0967 5.6676 16.97V16.856L0.537595 12.22ZM67.1988 40.986C65.9828 39.618 65.7295 37.946 66.4388 35.97L72.2148 19.212C72.8735 17.312 74.0388 15.7033 75.7108 14.386L73.2788 12.22H101.703C104.135 12.22 105.946 12.8913 107.137 14.234C108.327 15.602 108.581 17.2613 107.897 19.212L102.121 35.97C101.741 37.034 101.221 38.0093 100.563 38.896C99.9041 39.7573 99.1315 40.492 98.2448 41.1C97.3581 41.708 96.3955 42.1767 95.3568 42.506C94.3181 42.8353 93.2288 43 92.0888 43H72.6328C70.2008 43 68.3895 42.3287 67.1988 40.986ZM77.0788 34.982C76.9521 35.362 77.1168 35.552 77.5728 35.552H91.2528C91.6835 35.552 91.9621 35.362 92.0888 34.982L97.2188 20.2C97.3708 19.82 97.2188 19.63 96.7628 19.63H83.0828C83.0575 19.63 83.0448 19.6427 83.0448 19.668C83.0448 19.668 83.0321 19.668 83.0068 19.668H77.5728L81.2208 22.974L77.0788 34.982ZM110.344 43L119.54 16.438L114.866 12.22H147.394C149.801 12.22 151.6 12.904 152.79 14.272C154.006 15.64 154.272 17.2867 153.588 19.212L151.27 25.9C150.637 27.7493 149.383 29.396 147.508 30.84C145.634 32.208 143.214 32.892 140.25 32.892H140.022C141.821 35.7547 143.582 38.5287 145.304 41.214C146.039 42.354 146.786 43.5447 147.546 44.786C148.332 46.0273 149.104 47.2433 149.864 48.434C150.624 49.65 151.346 50.8027 152.03 51.892C152.74 53.0067 153.373 54.0073 153.93 54.894H140.896C140.618 54.3873 140.238 53.678 139.756 52.766C139.275 51.8793 138.73 50.866 138.122 49.726C137.54 48.6113 136.906 47.408 136.222 46.116C135.538 44.8493 134.867 43.5953 134.208 42.354C132.638 39.4407 130.953 36.2867 129.154 32.892H124.176L120.68 43H110.344ZM124.252 19.668L127.672 22.784L126.646 25.824H140.288C140.744 25.824 141.036 25.634 141.162 25.254L142.91 20.2C143.012 19.82 142.847 19.63 142.416 19.63L128.774 19.668H124.252ZM155.506 43L164.74 16.286L160.218 12.22H176.482L168.426 35.552H186.172L183.588 43H155.506ZM195.801 16.362L191.203 12.22H222.211C224.668 12.22 226.48 12.8913 227.645 14.234C228.81 15.602 229.076 17.2613 228.443 19.212L222.667 35.97C222.287 37.034 221.755 38.0093 221.071 38.896C220.412 39.7573 219.652 40.492 218.791 41.1C217.93 41.708 216.967 42.1767 215.903 42.506C214.864 42.8353 213.775 43 212.635 43H186.567L195.801 16.362ZM199.487 35.552H211.761C212.217 35.552 212.508 35.362 212.635 34.982L217.727 20.2C217.879 19.82 217.727 19.63 217.271 19.63L204.997 19.668H200.057L203.819 23.05L199.487 35.552ZM231.12 23.012L234.236 13.474C234.54 12.562 235.161 12.106 236.098 12.106H244.61L243.09 17.008C242.964 17.3627 242.736 17.692 242.406 17.996L235.794 23.012H231.12ZM248.07 40.948C246.854 39.6053 246.601 37.946 247.31 35.97L248.26 33.234H258.596L257.95 34.982C257.823 35.362 258.001 35.552 258.482 35.552H271.06C271.516 35.552 271.807 35.362 271.934 34.982L273.112 31.562C273.264 31.2073 273.099 31.03 272.618 31.03H257.646C255.239 31.03 253.428 30.346 252.212 28.978C250.996 27.6353 250.743 25.976 251.452 24L253.086 19.212C253.593 17.7427 254.378 16.476 255.442 15.412L251.908 12.22H281.51C283.967 12.22 285.779 12.8913 286.944 14.234C288.109 15.602 288.375 17.2613 287.742 19.212L286.792 21.948H276.456L277.026 20.2C277.178 19.82 277.026 19.63 276.57 19.63H263.954C263.929 19.63 263.916 19.6427 263.916 19.668C263.916 19.668 263.903 19.668 263.878 19.668H259.052L262.244 22.556L261.864 23.62C261.737 24 261.915 24.19 262.396 24.19H277.368C279.8 24.19 281.624 24.8613 282.84 26.204C284.031 27.5973 284.284 29.2567 283.6 31.182L281.966 35.97C281.181 38.1233 279.927 39.8333 278.204 41.1C276.507 42.3667 274.505 43 272.2 43H253.504C251.097 43 249.286 42.316 248.07 40.948ZM306.282 43C307.827 38.516 309.372 34.0573 310.918 29.624C312.463 25.1653 314.008 20.6813 315.554 16.172L311.146 12.22H347.322L344.738 19.63L324.674 19.668H320.532L323.686 22.518L323.04 24.494H343.028C342.597 25.7353 342.192 26.9007 341.812 27.99C341.432 29.0793 341.115 29.9913 340.862 30.726H317.15L319.962 33.31C319.658 34.222 319.328 35.1973 318.974 36.236C318.67 37.1227 318.302 38.1487 317.872 39.314C317.466 40.4793 317.048 41.708 316.618 43H306.282ZM347.918 43C348.78 40.4413 349.628 37.9713 350.464 35.59C350.819 34.5767 351.186 33.5253 351.566 32.436C351.946 31.3467 352.314 30.2827 352.668 29.244C353.023 28.2053 353.365 27.2047 353.694 26.242C354.024 25.2793 354.328 24.418 354.606 23.658H364.942C364.512 23.278 364.005 22.8347 363.422 22.328C362.84 21.796 362.219 21.226 361.56 20.618C360.902 20.01 360.205 19.3767 359.47 18.718C358.761 18.0593 358.064 17.426 357.38 16.818C355.784 15.374 354.1 13.8413 352.326 12.22H368.894L365.474 22.062C365.424 22.214 365.373 22.366 365.322 22.518C365.272 22.6447 365.208 22.8093 365.132 23.012C365.082 23.2147 365.018 23.43 364.942 23.658C364.841 23.9113 364.778 24.0887 364.752 24.19C364.727 24.2913 364.702 24.38 364.676 24.456C363.739 27.1667 362.865 29.6873 362.054 32.018C361.7 33.006 361.345 34.0193 360.99 35.058C360.636 36.0713 360.294 37.0467 359.964 37.984C359.66 38.896 359.382 39.732 359.128 40.492C358.875 41.2267 358.672 41.8093 358.52 42.24C358.47 42.3667 358.432 42.4807 358.406 42.582C358.381 42.6833 358.356 42.7593 358.33 42.81C358.305 42.886 358.28 42.9493 358.254 43H347.918ZM369.479 43L378.675 16.438L374.001 12.22H406.529C408.936 12.22 410.734 12.904 411.925 14.272C413.141 15.64 413.407 17.2867 412.723 19.212L410.405 25.9C409.772 27.7493 408.518 29.396 406.643 30.84C404.768 32.208 402.349 32.892 399.385 32.892H399.157C400.956 35.7547 402.716 38.5287 404.439 41.214C405.174 42.354 405.921 43.5447 406.681 44.786C407.466 46.0273 408.239 47.2433 408.999 48.434C409.759 49.65 410.481 50.8027 411.165 51.892C411.874 53.0067 412.508 54.0073 413.065 54.894H400.031C399.752 54.3873 399.372 53.678 398.891 52.766C398.41 51.8793 397.865 50.866 397.257 49.726C396.674 48.6113 396.041 47.408 395.357 46.116C394.673 44.8493 394.002 43.5953 393.343 42.354C391.772 39.4407 390.088 36.2867 388.289 32.892H383.311L379.815 43H369.479ZM383.387 19.668L386.807 22.784L385.781 25.824H399.423C399.879 25.824 400.17 25.634 400.297 25.254L402.045 20.2C402.146 19.82 401.982 19.63 401.551 19.63L387.909 19.668H383.387ZM417.511 40.948C416.295 39.6053 416.042 37.946 416.751 35.97L417.701 33.234H428.037L427.391 34.982C427.265 35.362 427.442 35.552 427.923 35.552H440.501C440.957 35.552 441.249 35.362 441.375 34.982L442.553 31.562C442.705 31.2073 442.541 31.03 442.059 31.03H427.087C424.681 31.03 422.869 30.346 421.653 28.978C420.437 27.6353 420.184 25.976 420.893 24L422.527 19.212C423.034 17.7427 423.819 16.476 424.883 15.412L421.349 12.22H450.951C453.409 12.22 455.22 12.8913 456.385 14.234C457.551 15.602 457.817 17.2613 457.183 19.212L456.233 21.948H445.897L446.467 20.2C446.619 19.82 446.467 19.63 446.011 19.63H433.395C433.37 19.63 433.357 19.6427 433.357 19.668C433.357 19.668 433.345 19.668 433.319 19.668H428.493L431.685 22.556L431.305 23.62C431.179 24 431.356 24.19 431.837 24.19H446.809C449.241 24.19 451.065 24.8613 452.281 26.204C453.472 27.5973 453.725 29.2567 453.041 31.182L451.407 35.97C450.622 38.1233 449.368 39.8333 447.645 41.1C445.948 42.3667 443.947 43 441.641 43H422.945C420.539 43 418.727 42.316 417.511 40.948ZM458.875 12.22H500.789L498.243 19.63L485.475 19.668H480.649L484.335 22.974C483.601 25.0767 482.841 27.2553 482.055 29.51C481.726 30.4727 481.371 31.4987 480.991 32.588C480.611 33.6773 480.219 34.8047 479.813 35.97C479.408 37.11 479.003 38.2753 478.597 39.466C478.192 40.6567 477.787 41.8347 477.381 43H467.045C467.501 41.6827 467.957 40.34 468.413 38.972C468.895 37.604 469.363 36.2487 469.819 34.906C470.301 33.5633 470.757 32.2587 471.187 30.992C471.643 29.7253 472.061 28.522 472.441 27.382C473.353 24.722 474.253 22.138 475.139 19.63H462.371L463.511 16.362L458.875 12.22ZM518.028 54.894C518.712 52.9433 519.421 50.8913 520.156 48.738C520.89 46.61 521.638 44.4693 522.398 42.316C523.158 40.1373 523.905 37.984 524.64 35.856C525.374 33.728 526.071 31.7013 526.73 29.776C528.3 25.2667 529.846 20.7953 531.366 16.362L526.768 12.22H543.146L551.924 30.498C553.545 25.8367 555.052 21.5047 556.446 17.502C557.028 15.8047 557.624 14.082 558.232 12.334C558.84 10.586 559.41 8.93933 559.942 7.394C560.474 5.84867 560.955 4.45533 561.386 3.214C561.816 1.97266 562.146 1.01 562.374 0.325999H572.71C572.431 1.162 572 2.416 571.418 4.088C570.835 5.73466 570.164 7.63467 569.404 9.788C568.669 11.9413 567.871 14.2593 567.01 16.742C566.148 19.2247 565.3 21.6947 564.464 24.152C562.462 29.928 560.296 36.2107 557.966 43H548.124L538.814 24.684C537.218 29.3453 535.723 33.6773 534.33 37.68C533.747 39.4027 533.152 41.138 532.544 42.886C531.936 44.6087 531.353 46.2427 530.796 47.788C530.264 49.3587 529.782 50.7647 529.352 52.006C528.921 53.2473 528.592 54.21 528.364 54.894H518.028ZM570.352 43C571.897 38.516 573.443 34.0573 574.988 29.624C576.533 25.1653 578.079 20.6813 579.624 16.172L575.216 12.22H611.392L608.808 19.63L588.744 19.668H584.602L587.756 22.518L587.11 24.494H607.098C606.667 25.7353 606.262 26.9007 605.882 27.99C605.502 29.0793 605.185 29.9913 604.932 30.726H581.22L584.032 33.31C583.728 34.222 583.399 35.1973 583.044 36.236C582.74 37.1227 582.373 38.1487 581.942 39.314C581.537 40.4793 581.119 41.708 580.688 43H570.352ZM612.731 12.22H654.645L652.061 19.63L639.293 19.668H634.505L638.153 22.974C637.418 25.0767 636.658 27.2553 635.873 29.51C635.544 30.4727 635.189 31.4987 634.809 32.588C634.429 33.6773 634.036 34.8047 633.631 35.97C633.226 37.11 632.82 38.2753 632.415 39.466C632.01 40.6567 631.604 41.8347 631.199 43H620.863C621.319 41.6827 621.775 40.34 622.231 38.972C622.712 37.604 623.181 36.2487 623.637 34.906C624.118 33.5633 624.574 32.2587 625.005 30.992C625.461 29.7253 625.879 28.522 626.259 27.382C627.171 24.722 628.07 22.138 628.957 19.63H616.189L617.329 16.362L612.731 12.22ZM655.036 43C655.542 41.556 656.062 40.0613 656.594 38.516C657.126 36.9707 657.658 35.438 658.19 33.918C658.722 32.398 659.241 30.9033 659.748 29.434C660.254 27.9647 660.736 26.584 661.192 25.292C662.23 22.2267 663.256 19.25 664.27 16.362L659.672 12.22H676.05L672.022 23.734H687.26C687.614 22.67 688.007 21.53 688.438 20.314C688.792 19.25 689.21 18.034 689.692 16.666C690.198 15.298 690.73 13.816 691.288 12.22H701.624C700.965 14.1453 700.306 16.058 699.648 17.958C698.989 19.858 698.343 21.72 697.71 23.544C697.076 25.3427 696.468 27.078 695.886 28.75C695.328 30.3967 694.796 31.942 694.29 33.386C693.099 36.7807 691.984 39.9853 690.946 43H680.61L684.676 31.182H665.296L668.45 34.07C668.171 34.83 667.88 35.666 667.576 36.578C667.297 37.3887 666.968 38.3387 666.588 39.428C666.233 40.492 665.828 41.6827 665.372 43H655.036ZM705.814 40.986C704.598 39.618 704.345 37.946 705.054 35.97L710.83 19.212C711.489 17.312 712.654 15.7033 714.326 14.386L711.894 12.22H740.318C742.75 12.22 744.561 12.8913 745.752 14.234C746.943 15.602 747.196 17.2613 746.512 19.212L740.736 35.97C740.356 37.034 739.837 38.0093 739.178 38.896C738.519 39.7573 737.747 40.492 736.86 41.1C735.973 41.708 735.011 42.1767 733.972 42.506C732.933 42.8353 731.844 43 730.704 43H711.248C708.816 43 707.005 42.3287 705.814 40.986ZM715.694 34.982C715.567 35.362 715.732 35.552 716.188 35.552H729.868C730.299 35.552 730.577 35.362 730.704 34.982L735.834 20.2C735.986 19.82 735.834 19.63 735.378 19.63H721.698C721.673 19.63 721.66 19.6427 721.66 19.668C721.66 19.668 721.647 19.668 721.622 19.668H716.188L719.836 22.974L715.694 34.982ZM748.959 43L758.155 16.438L753.481 12.22H786.009C788.416 12.22 790.215 12.904 791.405 14.272C792.621 15.64 792.887 17.2867 792.203 19.212L789.885 25.9C789.252 27.7493 787.998 29.396 786.123 30.84C784.249 32.208 781.829 32.892 778.865 32.892H778.637C780.436 35.7547 782.197 38.5287 783.919 41.214C784.654 42.354 785.401 43.5447 786.161 44.786C786.947 46.0273 787.719 47.2433 788.479 48.434C789.239 49.65 789.961 50.8027 790.645 51.892C791.355 53.0067 791.988 54.0073 792.545 54.894H779.511C779.233 54.3873 778.853 53.678 778.371 52.766C777.89 51.8793 777.345 50.866 776.737 49.726C776.155 48.6113 775.521 47.408 774.837 46.116C774.153 44.8493 773.482 43.5953 772.823 42.354C771.253 39.4407 769.568 36.2867 767.769 32.892H762.791L759.295 43H748.959ZM762.867 19.668L766.287 22.784L765.261 25.824H778.903C779.359 25.824 779.651 25.634 779.777 25.254L781.525 20.2C781.627 19.82 781.462 19.63 781.031 19.63L767.389 19.668H762.867ZM796.992 40.948C795.776 39.6053 795.522 37.946 796.232 35.97L797.182 33.234H807.518L806.872 34.982C806.745 35.362 806.922 35.552 807.404 35.552H819.982C820.438 35.552 820.729 35.362 820.856 34.982L822.034 31.562C822.186 31.2073 822.021 31.03 821.54 31.03H806.568C804.161 31.03 802.35 30.346 801.134 28.978C799.918 27.6353 799.664 25.976 800.374 24L802.008 19.212C802.514 17.7427 803.3 16.476 804.364 15.412L800.83 12.22H830.432C832.889 12.22 834.7 12.8913 835.866 14.234C837.031 15.602 837.297 17.2613 836.664 19.212L835.714 21.948H825.378L825.948 20.2C826.1 19.82 825.948 19.63 825.492 19.63H812.876C812.85 19.63 812.838 19.6427 812.838 19.668C812.838 19.668 812.825 19.668 812.8 19.668H807.974L811.166 22.556L810.786 23.62C810.659 24 810.836 24.19 811.318 24.19H826.29C828.722 24.19 830.546 24.8613 831.762 26.204C832.952 27.5973 833.206 29.2567 832.522 31.182L830.888 35.97C830.102 38.1233 828.848 39.8333 827.126 41.1C825.428 42.3667 823.427 43 821.122 43H802.426C800.019 43 798.208 42.316 796.992 40.948ZM843.962 43C843.151 43 842.404 42.8353 841.72 42.506C841.061 42.1767 840.504 41.746 840.048 41.214C839.617 40.682 839.326 40.074 839.174 39.39C839.047 38.706 839.098 38.0093 839.326 37.3C839.706 36.236 840.111 35.096 840.542 33.88C840.897 32.8413 841.289 31.676 841.72 30.384C842.176 29.092 842.645 27.762 843.126 26.394C843.557 25.102 843.987 23.848 844.418 22.632C844.849 21.3907 845.229 20.2887 845.558 19.326C845.938 18.2113 846.305 17.1473 846.66 16.134L842.29 12.22H879.682L877.098 19.63L855.78 19.668H851.41L854.754 22.67L854.108 24.494H875.426C875.071 25.482 874.704 26.5207 874.324 27.61C873.969 28.6993 873.615 29.738 873.26 30.726H848.598L851.144 33.044L850.27 35.552H871.588L869.004 43H843.962ZM66.2397 98L75.4357 71.438L70.7617 67.22H103.29C105.696 67.22 107.508 67.904 108.724 69.272C109.914 70.64 110.168 72.2867 109.484 74.212L107.204 80.9C106.52 82.8 105.253 84.4467 103.404 85.84C101.529 87.208 99.1097 87.892 96.1457 87.892H95.9557C97.7291 90.7547 99.4771 93.5287 101.2 96.214C101.909 97.354 102.656 98.5447 103.442 99.786C104.227 101.027 105 102.243 105.76 103.434C106.52 104.65 107.242 105.803 107.926 106.892C108.635 108.007 109.268 109.007 109.826 109.894H96.7917C96.5131 109.387 96.1331 108.678 95.6517 107.766C95.1704 106.879 94.6257 105.866 94.0177 104.726C93.4351 103.611 92.8017 102.408 92.1177 101.116C91.4591 99.8493 90.8004 98.5953 90.1417 97.354C88.5711 94.4407 86.8864 91.2867 85.0877 87.892H80.0717L76.5757 98H66.2397ZM83.6057 77.784L82.5417 80.824H96.2217C96.6524 80.824 96.9311 80.634 97.0577 80.254L98.8057 75.2C98.9577 74.82 98.7931 74.63 98.3117 74.63L84.6697 74.668H80.1477L83.6057 77.784ZM112.249 109.894C113.693 108.222 115.289 106.373 117.037 104.346C118.759 102.345 120.558 100.255 122.433 98.076C124.307 95.9227 126.195 93.744 128.095 91.54C130.02 89.3107 131.869 87.17 133.643 85.118C137.823 80.3047 142.091 75.3773 146.449 70.336L142.991 67.22H159.331C159.837 70.032 160.331 72.8313 160.813 75.618C161.015 76.8087 161.231 78.0627 161.459 79.38C161.712 80.672 161.953 81.9767 162.181 83.294C162.409 84.6113 162.637 85.916 162.865 87.208C163.118 88.4747 163.346 89.678 163.549 90.818C163.726 91.882 163.891 92.8447 164.043 93.706C164.195 94.542 164.334 95.2893 164.461 95.948C164.587 96.708 164.701 97.392 164.803 98H151.617L142.991 90.172H152.681L150.515 78.012V78.05L147.703 81.356C144.688 84.928 141.724 88.4367 138.811 91.882C137.569 93.3513 136.277 94.884 134.935 96.48C133.592 98.076 132.249 99.6593 130.907 101.23C129.589 102.801 128.31 104.321 127.069 105.79C125.827 107.285 124.675 108.653 123.611 109.894H112.249ZM166.351 95.948C165.135 94.6053 164.882 92.946 165.591 90.97L171.367 74.212C171.798 72.844 172.533 71.59 173.571 70.45L169.999 67.22H204.427C205.846 67.22 206.91 67.6127 207.619 68.398C208.303 69.2087 208.455 70.184 208.075 71.324L205.719 78.202H195.383L196.447 74.972C196.523 74.744 196.435 74.63 196.181 74.63H182.235C182.21 74.63 182.197 74.6427 182.197 74.668C182.197 74.668 182.185 74.668 182.159 74.668H176.877L180.411 77.86L176.231 89.982C176.105 90.362 176.282 90.552 176.763 90.552H190.671C190.95 90.552 191.127 90.438 191.203 90.21L192.305 87.018H202.641L200.285 93.896C200.057 94.504 199.703 95.0613 199.221 95.568C198.765 96.0747 198.233 96.518 197.625 96.898C197.043 97.2527 196.409 97.5313 195.725 97.734C195.067 97.9113 194.421 98 193.787 98H171.785C169.379 98 167.567 97.316 166.351 95.948ZM208.48 98C209.341 95.4413 210.19 92.9713 211.026 90.59C211.381 89.5767 211.748 88.5253 212.128 87.436C212.508 86.3467 212.875 85.2827 213.23 84.244C213.585 83.2053 213.927 82.2047 214.256 81.242C214.585 80.2793 214.889 79.418 215.168 78.658H225.504C225.073 78.278 224.567 77.8347 223.984 77.328C223.401 76.796 222.781 76.226 222.122 75.618C221.463 75.01 220.767 74.3767 220.032 73.718C219.323 73.0593 218.626 72.426 217.942 71.818C216.346 70.374 214.661 68.8413 212.888 67.22H229.456L226.036 77.062C225.985 77.214 225.935 77.366 225.884 77.518C225.833 77.6447 225.77 77.8093 225.694 78.012C225.643 78.2147 225.58 78.43 225.504 78.658C225.403 78.9113 225.339 79.0887 225.314 79.19C225.289 79.2913 225.263 79.38 225.238 79.456C224.301 82.1667 223.427 84.6873 222.616 87.018C222.261 88.006 221.907 89.0193 221.552 90.058C221.197 91.0713 220.855 92.0467 220.526 92.984C220.222 93.896 219.943 94.732 219.69 95.492C219.437 96.2267 219.234 96.8093 219.082 97.24C219.031 97.3667 218.993 97.4807 218.968 97.582C218.943 97.6833 218.917 97.7593 218.892 97.81C218.867 97.886 218.841 97.9493 218.816 98H208.48ZM226.292 109.894C226.976 107.943 227.686 105.891 228.42 103.738C229.155 101.61 229.902 99.4693 230.662 97.316C231.422 95.1373 232.17 92.984 232.904 90.856C233.639 88.728 234.336 86.7013 234.994 84.776C236.565 80.2667 238.11 75.7953 239.63 71.362L235.032 67.22H251.372L260.188 85.498C261.784 80.8367 263.279 76.5047 264.672 72.502C265.255 70.8047 265.85 69.082 266.458 67.334C267.066 65.586 267.636 63.9393 268.168 62.394C268.7 60.8487 269.182 59.4553 269.612 58.214C270.043 56.9727 270.385 56.01 270.638 55.326H280.974L266.192 98H256.388L247.078 79.684C245.457 84.3453 243.95 88.6773 242.556 92.68C241.948 94.4027 241.34 96.138 240.732 97.886C240.15 99.6087 239.592 101.243 239.06 102.788C238.528 104.359 238.047 105.765 237.616 107.006C237.186 108.247 236.856 109.21 236.628 109.894H226.292ZM279.487 96.784C278.778 95.9987 278.626 95.036 279.031 93.896L285.795 74.212C286.302 72.768 287.062 71.5393 288.075 70.526L284.427 67.22H323.605L321.059 74.63H296.701C296.676 74.63 296.65 74.6427 296.625 74.668C296.625 74.668 296.612 74.668 296.587 74.668H291.571L294.915 77.708L290.621 90.21C290.545 90.438 290.646 90.552 290.925 90.552H304.871C305.378 90.552 305.694 90.362 305.821 89.982L307.493 85.156H306.049C305.669 84.7507 305.162 84.1933 304.529 83.484C303.896 82.7747 303.275 82.0907 302.667 81.432C301.958 80.6467 301.21 79.8233 300.425 78.962H319.881L315.739 90.97C314.092 95.6567 311.103 98 306.771 98H282.641C281.273 98 280.222 97.5947 279.487 96.784ZM342.461 96.784C341.777 95.9987 341.625 95.036 342.005 93.896L348.807 74.212C349.263 72.7933 350.01 71.5647 351.049 70.526L347.401 67.22H386.617L384.033 74.63H359.675C359.65 74.63 359.624 74.6427 359.599 74.668H354.545L357.927 77.708L353.595 90.21C353.519 90.438 353.62 90.552 353.899 90.552H367.845C368.352 90.552 368.668 90.362 368.795 89.982L370.467 85.156H369.023C368.643 84.7507 368.136 84.1933 367.503 83.484C366.87 82.7747 366.249 82.0907 365.641 81.432C364.932 80.6467 364.184 79.8233 363.399 78.962H382.855L378.713 90.97C377.066 95.6567 374.077 98 369.745 98H345.653C344.26 98 343.196 97.5947 342.461 96.784ZM371.346 109.894C372.79 108.222 374.386 106.373 376.134 104.346C377.857 102.345 379.656 100.255 381.53 98.076C383.405 95.9227 385.292 93.744 387.192 91.54C389.118 89.3107 390.967 87.17 392.74 85.118C396.92 80.3047 401.189 75.3773 405.546 70.336L402.088 67.22H418.428C418.935 70.032 419.429 72.8313 419.91 75.618C420.113 76.8087 420.328 78.0627 420.556 79.38C420.81 80.672 421.05 81.9767 421.278 83.294C421.506 84.6113 421.734 85.916 421.962 87.208C422.216 88.4747 422.444 89.678 422.646 90.818C422.824 91.882 422.988 92.8447 423.14 93.706C423.292 94.542 423.432 95.2893 423.558 95.948C423.685 96.708 423.799 97.392 423.9 98H410.714L402.088 90.172H411.778L409.612 78.012V78.05L406.8 81.356C403.786 84.928 400.822 88.4367 397.908 91.882C396.667 93.3513 395.375 94.884 394.032 96.48C392.69 98.076 391.347 99.6593 390.004 101.23C388.687 102.801 387.408 104.321 386.166 105.79C384.925 107.285 383.772 108.653 382.708 109.894H371.346ZM424.271 98C424.778 96.5307 425.297 95.036 425.829 93.516C426.361 91.9707 426.893 90.438 427.425 88.918C427.957 87.398 428.464 85.9033 428.945 84.434C429.452 82.9647 429.933 81.584 430.389 80.292C431.428 77.2267 432.454 74.25 433.467 71.362L428.907 67.22H443.689L449.123 85.156C449.224 85.0293 449.338 84.9027 449.465 84.776C449.592 84.6493 449.731 84.51 449.883 84.358C450.06 84.1807 450.25 83.978 450.453 83.75C450.934 83.218 451.53 82.5847 452.239 81.85C452.974 81.09 453.746 80.2793 454.557 79.418C455.393 78.5313 456.254 77.6193 457.141 76.682C458.028 75.7447 458.902 74.82 459.763 73.908C461.764 71.78 463.867 69.5507 466.071 67.22H475.913L475.799 67.562C475.748 67.6887 475.685 67.828 475.609 67.98C475.558 68.132 475.508 68.3093 475.457 68.512C475.229 69.1453 474.95 69.9433 474.621 70.906C474.292 71.8433 473.924 72.9073 473.519 74.098C473.114 75.238 472.683 76.454 472.227 77.746C471.796 79.038 471.353 80.3553 470.897 81.698C470.441 83.0153 469.972 84.3327 469.491 85.65C469.035 86.9673 468.604 88.234 468.199 89.45C467.211 92.2873 466.223 95.1373 465.235 98H454.899L459.155 85.726C457.078 87.7527 455.076 89.6907 453.151 91.54C452.34 92.3507 451.492 93.174 450.605 94.01C449.744 94.846 448.895 95.6693 448.059 96.48C447.248 97.2653 446.476 98.0127 445.741 98.722C445.006 99.4313 444.36 100.052 443.803 100.584C443.575 99.9253 443.322 99.2033 443.043 98.418C442.79 97.658 442.524 96.8727 442.245 96.062C441.966 95.226 441.688 94.4027 441.409 93.592C441.13 92.756 440.864 91.958 440.611 91.198C440.003 89.4247 439.395 87.6133 438.787 85.764C438.382 86.904 437.951 88.1453 437.495 89.488C437.115 90.628 436.672 91.9327 436.165 93.402C435.658 94.8713 435.139 96.404 434.607 98H424.271ZM482.832 98C482.022 98 481.274 97.8353 480.59 97.506C479.932 97.1767 479.374 96.746 478.918 96.214C478.488 95.682 478.196 95.074 478.044 94.39C477.918 93.706 477.968 93.0093 478.196 92.3C478.576 91.236 478.982 90.096 479.412 88.88C479.767 87.8413 480.16 86.676 480.59 85.384C481.046 84.092 481.515 82.762 481.996 81.394C482.427 80.102 482.858 78.848 483.288 77.632C483.719 76.3907 484.099 75.2887 484.428 74.326C484.808 73.2113 485.176 72.1473 485.53 71.134L481.16 67.22H518.552L515.968 74.63L494.65 74.668H490.28L493.624 77.67L492.978 79.494H514.296C513.942 80.482 513.574 81.5207 513.194 82.61C512.84 83.6993 512.485 84.738 512.13 85.726H487.468L490.014 88.044L489.14 90.552H510.458L507.874 98H482.832ZM519.494 98C521.039 93.516 522.584 89.0573 524.13 84.624C525.675 80.1653 527.22 75.6813 528.766 71.172L524.358 67.22H560.534L557.95 74.63L537.886 74.668H533.744L536.898 77.518L536.252 79.494H556.24C555.809 80.7353 555.404 81.9007 555.024 82.99C554.644 84.0793 554.327 84.9913 554.074 85.726H530.362L533.174 88.31C532.87 89.222 532.54 90.1973 532.186 91.236C531.882 92.1227 531.514 93.1487 531.084 94.314C530.678 95.4793 530.26 96.708 529.83 98H519.494ZM561.13 98C561.992 95.4413 562.84 92.9713 563.676 90.59C564.031 89.5767 564.398 88.5253 564.778 87.436C565.158 86.3467 565.526 85.2827 565.88 84.244C566.235 83.2053 566.577 82.2047 566.906 81.242C567.236 80.2793 567.54 79.418 567.818 78.658H578.154C577.724 78.278 577.217 77.8347 576.634 77.328C576.052 76.796 575.431 76.226 574.772 75.618C574.114 75.01 573.417 74.3767 572.682 73.718C571.973 73.0593 571.276 72.426 570.592 71.818C568.996 70.374 567.312 68.8413 565.538 67.22H582.106L578.686 77.062C578.636 77.214 578.585 77.366 578.534 77.518C578.484 77.6447 578.42 77.8093 578.344 78.012C578.294 78.2147 578.23 78.43 578.154 78.658C578.053 78.9113 577.99 79.0887 577.964 79.19C577.939 79.2913 577.914 79.38 577.888 79.456C576.951 82.1667 576.077 84.6873 575.266 87.018C574.912 88.006 574.557 89.0193 574.202 90.058C573.848 91.0713 573.506 92.0467 573.176 92.984C572.872 93.896 572.594 94.732 572.34 95.492C572.087 96.2267 571.884 96.8093 571.732 97.24C571.682 97.3667 571.644 97.4807 571.618 97.582C571.593 97.6833 571.568 97.7593 571.542 97.81C571.517 97.886 571.492 97.9493 571.466 98H561.13ZM584.611 95.986C583.395 94.618 583.142 92.946 583.851 90.97L589.627 74.212C590.26 72.3373 591.426 70.7287 593.123 69.386L590.691 67.22H619.115C621.572 67.22 623.384 67.8913 624.549 69.234C625.714 70.602 625.98 72.2613 625.347 74.212L619.571 90.97C619.191 92.034 618.659 93.0093 617.975 93.896C617.316 94.7573 616.544 95.492 615.657 96.1C614.796 96.708 613.846 97.1767 612.807 97.506C611.768 97.8353 610.679 98 609.539 98H590.045C587.638 98 585.827 97.3287 584.611 95.986ZM594.491 89.982C594.364 90.362 594.542 90.552 595.023 90.552H608.665C609.121 90.552 609.412 90.362 609.539 89.982L614.631 75.2C614.783 74.82 614.631 74.63 614.175 74.63H600.495C600.495 74.63 600.47 74.6427 600.419 74.668H594.985L598.633 77.974L594.491 89.982ZM625.404 109.894C626.088 107.943 626.797 105.891 627.532 103.738C628.266 101.61 629.014 99.4693 629.774 97.316C630.534 95.1373 631.281 92.984 632.016 90.856C632.75 88.728 633.447 86.7013 634.106 84.776C635.676 80.2667 637.222 75.7953 638.742 71.362L634.144 67.22H650.484L659.3 85.498C660.896 80.8367 662.39 76.5047 663.784 72.502C664.366 70.8047 664.962 69.082 665.57 67.334C666.178 65.586 666.748 63.9393 667.28 62.394C667.812 60.8487 668.293 59.4553 668.724 58.214C669.154 56.9727 669.496 56.01 669.75 55.326H680.086L665.304 98H655.5L646.19 79.684C644.568 84.3453 643.061 88.6773 641.668 92.68C641.06 94.4027 640.452 96.138 639.844 97.886C639.261 99.6087 638.704 101.243 638.172 102.788C637.64 104.359 637.158 105.765 636.728 107.006C636.297 108.247 635.968 109.21 635.74 109.894H625.404ZM697.322 98L706.556 71.324L702.034 67.22H732.738C733.422 67.22 734.118 67.2833 734.828 67.41C735.537 67.5113 736.196 67.714 736.804 68.018C737.412 68.322 737.931 68.7273 738.362 69.234C738.818 69.7407 739.122 70.374 739.274 71.134C739.426 71.9193 739.375 72.7933 739.122 73.756C738.97 74.44 738.754 75.1367 738.476 75.846C738.197 76.5553 737.855 77.2393 737.45 77.898C737.044 78.5567 736.588 79.1773 736.082 79.76C735.6 80.3173 735.068 80.786 734.486 81.166C735.575 81.9007 736.259 83.0407 736.538 84.586C736.791 85.8527 736.69 87.284 736.234 88.88C735.879 90.0707 735.372 91.2107 734.714 92.3C734.055 93.3893 733.257 94.3647 732.32 95.226C731.408 96.062 730.369 96.7333 729.204 97.24C728.064 97.7467 726.848 98 725.556 98H697.322ZM708.76 85.574L711.23 87.778L710.242 90.552H722.326C722.655 90.552 722.997 90.5013 723.352 90.4C723.706 90.2987 724.036 90.1593 724.34 89.982C724.669 89.7793 724.948 89.5513 725.176 89.298C725.429 89.0193 725.606 88.728 725.708 88.424L725.936 87.74C726.037 87.36 726.075 87.0433 726.05 86.79C725.898 85.954 725.239 85.536 724.074 85.536L711.99 85.574H708.76ZM712.028 74.63L714.84 77.176L714.042 79.57H724.34C724.669 79.57 725.011 79.5193 725.366 79.418C725.72 79.3167 726.05 79.1773 726.354 79C726.683 78.7973 726.962 78.5567 727.19 78.278C727.443 77.9993 727.62 77.6953 727.722 77.366L727.95 76.796C728.026 76.5427 728.051 76.264 728.026 75.96C727.823 75.048 727.152 74.592 726.012 74.592H715.752V74.63H712.028ZM743.981 95.948C742.79 94.6307 742.537 92.9713 743.221 90.97L744.171 88.234H754.507L753.861 89.982C753.734 90.362 753.912 90.552 754.393 90.552H766.971C767.427 90.552 767.718 90.362 767.845 89.982L769.023 86.562C769.175 86.2073 769.023 86.03 768.567 86.03H753.557C751.15 86.03 749.339 85.346 748.123 83.978C746.932 82.6607 746.679 81.0013 747.363 79L748.997 74.212C749.478 72.8187 750.264 71.552 751.353 70.412L747.819 67.22H777.421C779.878 67.22 781.69 67.8913 782.855 69.234C784.046 70.5513 784.312 72.2107 783.653 74.212L782.703 76.948H772.367L772.937 75.2C773.089 74.82 772.937 74.63 772.481 74.63H759.865C759.865 74.63 759.84 74.6427 759.789 74.668H754.963L758.155 77.556L757.775 78.62C757.699 79 757.876 79.19 758.307 79.19H773.279C775.711 79.19 777.535 79.8613 778.751 81.204C779.942 82.5467 780.195 84.206 779.511 86.182L777.877 90.97C777.092 93.1233 775.838 94.8333 774.115 96.1C772.418 97.3667 770.416 98 768.111 98H749.415C747.008 98 745.197 97.316 743.981 95.948ZM788.861 95.948C787.67 94.6307 787.417 92.9713 788.101 90.97L793.877 74.212C794.384 72.7933 795.118 71.5393 796.081 70.45L792.509 67.22H826.975C828.368 67.22 829.42 67.6127 830.129 68.398C830.838 69.234 830.99 70.2093 830.585 71.324L828.229 78.202H817.893L818.957 74.972C819.058 74.744 818.97 74.63 818.691 74.63H804.745C804.745 74.63 804.72 74.6427 804.669 74.668H799.387L802.921 77.86L798.741 89.982C798.614 90.362 798.792 90.552 799.273 90.552H813.181C813.46 90.552 813.637 90.438 813.713 90.21L814.815 87.018H825.151L822.795 93.896C822.592 94.5293 822.25 95.0993 821.769 95.606C821.313 96.1127 820.781 96.5433 820.173 96.898C819.565 97.2527 818.919 97.5313 818.235 97.734C817.576 97.9113 816.93 98 816.297 98H794.295C791.888 98 790.077 97.316 788.861 95.948ZM136.488 153L145.722 126.324L141.2 122.22H171.904C172.588 122.22 173.284 122.283 173.994 122.41C174.703 122.511 175.362 122.714 175.97 123.018C176.578 123.322 177.097 123.727 177.528 124.234C177.984 124.741 178.288 125.374 178.44 126.134C178.592 126.919 178.541 127.793 178.288 128.756C178.136 129.44 177.92 130.137 177.642 130.846C177.363 131.555 177.021 132.239 176.616 132.898C176.21 133.557 175.754 134.177 175.248 134.76C174.766 135.317 174.234 135.786 173.652 136.166C174.741 136.901 175.425 138.041 175.704 139.586C175.957 140.853 175.856 142.284 175.4 143.88C175.045 145.071 174.538 146.211 173.88 147.3C173.221 148.389 172.423 149.365 171.486 150.226C170.574 151.062 169.535 151.733 168.37 152.24C167.23 152.747 166.014 153 164.722 153H136.488ZM147.926 140.574L150.396 142.778L149.408 145.552H161.492C161.821 145.552 162.163 145.501 162.518 145.4C162.872 145.299 163.202 145.159 163.506 144.982C163.835 144.779 164.114 144.551 164.342 144.298C164.595 144.019 164.772 143.728 164.874 143.424L165.102 142.74C165.203 142.36 165.241 142.043 165.216 141.79C165.064 140.954 164.405 140.536 163.24 140.536L151.156 140.574H147.926ZM151.194 129.63L154.006 132.176L153.208 134.57H163.506C163.835 134.57 164.177 134.519 164.532 134.418C164.886 134.317 165.216 134.177 165.52 134C165.849 133.797 166.128 133.557 166.356 133.278C166.609 132.999 166.786 132.695 166.888 132.366L167.116 131.796C167.192 131.543 167.217 131.264 167.192 130.96C166.989 130.048 166.318 129.592 165.178 129.592H154.918V129.63H151.194ZM166.28 164.894C167.724 163.222 169.32 161.373 171.068 159.346C172.79 157.345 174.589 155.255 176.464 153.076C178.338 150.923 180.226 148.744 182.126 146.54C184.051 144.311 185.9 142.17 187.674 140.118C191.854 135.305 196.122 130.377 200.48 125.336L197.022 122.22H213.362C213.868 125.032 214.362 127.831 214.844 130.618C215.046 131.809 215.262 133.063 215.49 134.38C215.743 135.672 215.984 136.977 216.212 138.294C216.44 139.611 216.668 140.916 216.896 142.208C217.149 143.475 217.377 144.678 217.58 145.818C217.757 146.882 217.922 147.845 218.074 148.706C218.226 149.542 218.365 150.289 218.492 150.948C218.618 151.708 218.732 152.392 218.834 153H205.648L197.022 145.172H206.712L204.546 133.012V133.05L201.734 136.356C198.719 139.928 195.755 143.437 192.842 146.882C191.6 148.351 190.308 149.884 188.966 151.48C187.623 153.076 186.28 154.659 184.938 156.23C183.62 157.801 182.341 159.321 181.1 160.79C179.858 162.285 178.706 163.653 177.642 164.894H166.28ZM220.383 150.948C219.167 149.605 218.913 147.946 219.623 145.97L225.399 129.212C225.829 127.844 226.564 126.59 227.603 125.45L224.031 122.22H258.459C259.877 122.22 260.941 122.613 261.651 123.398C262.335 124.209 262.487 125.184 262.107 126.324L259.751 133.202H249.415L250.479 129.972C250.555 129.744 250.466 129.63 250.213 129.63H236.267C236.241 129.63 236.229 129.643 236.229 129.668C236.229 129.668 236.216 129.668 236.191 129.668H230.909L234.443 132.86L230.263 144.982C230.136 145.362 230.313 145.552 230.795 145.552H244.703C244.981 145.552 245.159 145.438 245.235 145.21L246.337 142.018H256.673L254.317 148.896C254.089 149.504 253.734 150.061 253.253 150.568C252.797 151.075 252.265 151.518 251.657 151.898C251.074 152.253 250.441 152.531 249.757 152.734C249.098 152.911 248.452 153 247.819 153H225.817C223.41 153 221.599 152.316 220.383 150.948ZM272.82 126.476L268.108 122.22H284.638L281.826 130.39L293.986 122.22H306.26L289.502 133.278C291.123 137.838 292.668 142.157 294.138 146.236C294.746 147.984 295.366 149.757 296 151.556C296.658 153.355 297.279 155.077 297.862 156.724C298.47 158.396 299.027 159.941 299.534 161.36C300.04 162.779 300.471 163.957 300.826 164.894H288.59C288.311 164.083 287.982 163.095 287.602 161.93C287.247 160.79 286.842 159.536 286.386 158.168C285.955 156.825 285.499 155.419 285.018 153.95C284.562 152.506 284.106 151.087 283.65 149.694C282.586 146.426 281.471 142.968 280.306 139.32L278.216 140.688L273.998 153H263.662L272.82 126.476ZM311.498 153C310.688 153 309.94 152.835 309.256 152.506C308.598 152.177 308.04 151.746 307.584 151.214C307.154 150.682 306.862 150.074 306.71 149.39C306.584 148.706 306.634 148.009 306.862 147.3C307.242 146.236 307.648 145.096 308.078 143.88C308.433 142.841 308.826 141.676 309.256 140.384C309.712 139.092 310.181 137.762 310.662 136.394C311.093 135.102 311.524 133.848 311.954 132.632C312.385 131.391 312.765 130.289 313.094 129.326C313.474 128.211 313.842 127.147 314.196 126.134L309.826 122.22H347.218L344.634 129.63L323.316 129.668H318.946L322.29 132.67L321.644 134.494H342.962C342.608 135.482 342.24 136.521 341.86 137.61C341.506 138.699 341.151 139.738 340.796 140.726H316.134L318.68 143.044L317.806 145.552H339.124L336.54 153H311.498ZM357.023 126.362L352.425 122.22H383.433C385.89 122.22 387.701 122.891 388.867 124.234C390.032 125.602 390.298 127.261 389.665 129.212L383.889 145.97C383.509 147.034 382.977 148.009 382.293 148.896C381.634 149.757 380.874 150.492 380.013 151.1C379.151 151.708 378.189 152.177 377.125 152.506C376.086 152.835 374.997 153 373.857 153H347.789L357.023 126.362ZM360.709 145.552H372.983C373.439 145.552 373.73 145.362 373.857 144.982L378.949 130.2C379.101 129.82 378.949 129.63 378.493 129.63L366.219 129.668H361.279L365.041 133.05L360.709 145.552ZM417.474 126.324L412.952 122.22H443.618C444.302 122.22 444.998 122.283 445.708 122.41C446.417 122.511 447.076 122.714 447.684 123.018C448.317 123.322 448.849 123.727 449.28 124.234C449.736 124.741 450.04 125.374 450.192 126.134C450.344 126.843 450.293 127.717 450.04 128.756C449.888 129.415 449.66 130.111 449.356 130.846C449.077 131.555 448.735 132.252 448.33 132.936C447.95 133.595 447.506 134.215 447 134.798C446.493 135.355 445.948 135.811 445.366 136.166C446.48 136.875 447.177 138.015 447.456 139.586C447.684 140.929 447.582 142.36 447.152 143.88C446.797 145.071 446.29 146.211 445.632 147.3C444.973 148.389 444.175 149.365 443.238 150.226C442.3 151.062 441.262 151.733 440.122 152.24C438.982 152.747 437.766 153 436.474 153H408.24L417.474 126.324ZM419.678 140.574L422.11 142.778L421.16 145.552H433.244C433.548 145.552 433.877 145.501 434.232 145.4C434.586 145.299 434.916 145.159 435.22 144.982C435.549 144.779 435.84 144.551 436.094 144.298C436.347 144.045 436.512 143.753 436.588 143.424L436.854 142.74C436.98 142.335 437.006 142.018 436.93 141.79C436.778 140.954 436.132 140.536 434.992 140.536L422.908 140.574H419.678ZM422.946 129.63L425.758 132.176L424.96 134.57H435.22C435.549 134.57 435.891 134.519 436.246 134.418C436.6 134.317 436.942 134.177 437.272 134C437.601 133.797 437.88 133.557 438.108 133.278C438.361 132.999 438.538 132.695 438.64 132.366L438.868 131.796C438.969 131.517 438.982 131.239 438.906 130.96C438.754 130.048 438.095 129.592 436.93 129.592H426.67L426.632 129.63H422.946ZM451.621 122.22H466.821L470.697 133.278L482.591 122.22H494.903L473.167 142.208L469.443 153H459.107L462.831 142.208L456.827 126.932L451.621 122.22ZM512.146 153L521.342 126.438L516.668 122.22H549.196C551.603 122.22 553.414 122.904 554.63 124.272C555.821 125.64 556.074 127.287 555.39 129.212L553.11 135.9C552.426 137.8 551.159 139.447 549.31 140.84C547.435 142.208 545.016 142.892 542.052 142.892H541.862C543.635 145.755 545.383 148.529 547.106 151.214C547.815 152.354 548.563 153.545 549.348 154.786C550.133 156.027 550.906 157.243 551.666 158.434C552.426 159.65 553.148 160.803 553.832 161.892C554.541 163.007 555.175 164.007 555.732 164.894H542.698C542.419 164.387 542.039 163.678 541.558 162.766C541.077 161.879 540.532 160.866 539.924 159.726C539.341 158.611 538.708 157.408 538.024 156.116C537.365 154.849 536.707 153.595 536.048 152.354C534.477 149.441 532.793 146.287 530.994 142.892H525.978L522.482 153H512.146ZM529.512 132.784L528.448 135.824H542.128C542.559 135.824 542.837 135.634 542.964 135.254L544.712 130.2C544.864 129.82 544.699 129.63 544.218 129.63L530.576 129.668H526.054L529.512 132.784ZM564.287 153C563.477 153 562.729 152.835 562.045 152.506C561.387 152.177 560.829 151.746 560.373 151.214C559.943 150.682 559.651 150.074 559.499 149.39C559.373 148.706 559.423 148.009 559.651 147.3C560.031 146.236 560.437 145.096 560.867 143.88C561.222 142.841 561.615 141.676 562.045 140.384C562.501 139.092 562.97 137.762 563.451 136.394C563.882 135.102 564.313 133.848 564.743 132.632C565.174 131.391 565.554 130.289 565.883 129.326C566.263 128.211 566.631 127.147 566.985 126.134L562.615 122.22H600.007L597.423 129.63L576.105 129.668H571.735L575.079 132.67L574.433 134.494H595.751C595.397 135.482 595.029 136.521 594.649 137.61C594.295 138.699 593.94 139.738 593.585 140.726H568.923L571.469 143.044L570.595 145.552H591.913L589.329 153H564.287ZM585.319 164.894C586.763 163.222 588.359 161.373 590.107 159.346C591.83 157.345 593.628 155.255 595.503 153.076C597.378 150.923 599.265 148.744 601.165 146.54C603.09 144.311 604.94 142.17 606.713 140.118C610.893 135.305 615.162 130.377 619.519 125.336L616.061 122.22H632.401C632.908 125.032 633.402 127.831 633.883 130.618C634.086 131.809 634.301 133.063 634.529 134.38C634.782 135.672 635.023 136.977 635.251 138.294C635.479 139.611 635.707 140.916 635.935 142.208C636.188 143.475 636.416 144.678 636.619 145.818C636.796 146.882 636.961 147.845 637.113 148.706C637.265 149.542 637.404 150.289 637.531 150.948C637.658 151.708 637.772 152.392 637.873 153H624.687L616.061 145.172H625.751L623.585 133.012V133.05L620.773 136.356C617.758 139.928 614.794 143.437 611.881 146.882C610.64 148.351 609.348 149.884 608.005 151.48C606.662 153.076 605.32 154.659 603.977 156.23C602.66 157.801 601.38 159.321 600.139 160.79C598.898 162.285 597.745 163.653 596.681 164.894H585.319ZM638.244 153L647.478 126.286L642.956 122.22H659.22L651.164 145.552H668.91L666.326 153H638.244ZM669.304 153C670.166 150.441 671.014 147.971 671.85 145.59C672.205 144.577 672.572 143.525 672.952 142.436C673.332 141.347 673.7 140.283 674.054 139.244C674.409 138.205 674.751 137.205 675.08 136.242C675.41 135.279 675.714 134.418 675.992 133.658H686.328C685.898 133.278 685.391 132.835 684.808 132.328C684.226 131.796 683.605 131.226 682.946 130.618C682.288 130.01 681.591 129.377 680.856 128.718C680.147 128.059 679.45 127.426 678.766 126.818C677.17 125.374 675.486 123.841 673.712 122.22H690.28L686.86 132.062C686.81 132.214 686.759 132.366 686.708 132.518C686.658 132.645 686.594 132.809 686.518 133.012C686.468 133.215 686.404 133.43 686.328 133.658C686.227 133.911 686.164 134.089 686.138 134.19C686.113 134.291 686.088 134.38 686.062 134.456C685.125 137.167 684.251 139.687 683.44 142.018C683.086 143.006 682.731 144.019 682.376 145.058C682.022 146.071 681.68 147.047 681.35 147.984C681.046 148.896 680.768 149.732 680.514 150.492C680.261 151.227 680.058 151.809 679.906 152.24C679.856 152.367 679.818 152.481 679.792 152.582C679.767 152.683 679.742 152.759 679.716 152.81C679.691 152.886 679.666 152.949 679.64 153H669.304ZM691.607 122.22H733.521L730.975 129.63L718.207 129.668H713.381L717.067 132.974C716.332 135.077 715.572 137.255 714.787 139.51C714.458 140.473 714.103 141.499 713.723 142.588C713.343 143.677 712.95 144.805 712.545 145.97C712.14 147.11 711.734 148.275 711.329 149.466C710.924 150.657 710.518 151.835 710.113 153H699.777C700.233 151.683 700.689 150.34 701.145 148.972C701.626 147.604 702.095 146.249 702.551 144.906C703.032 143.563 703.488 142.259 703.919 140.992C704.375 139.725 704.793 138.522 705.173 137.382C706.085 134.722 706.984 132.138 707.871 129.63H695.103L696.243 126.362L691.607 122.22ZM735.062 122.22H750.262L754.138 133.278L766.032 122.22H778.344L756.608 142.208L752.884 153H742.548L746.272 142.208L740.268 126.932L735.062 122.22Z" fill="white"/>
</svg>
