<svg width="157" height="17" viewBox="0 0 157 17" fill="none" xmlns="http://www.w3.org/2000/svg">
<path d="M1.12726 10.3476C1.33591 9.75484 1.54769 9.16479 1.7626 8.57744C1.9775 7.99009 2.1837 7.41188 2.38122 6.8428C2.58221 6.2744 2.77346 5.74051 2.95498 5.24113C3.3681 4.05629 3.77601 2.90596 4.17869 1.79013L2.35097 0.188464H8.22643L10.3964 7.11787C10.4371 7.06915 10.4819 7.01637 10.532 6.97069C10.582 6.92502 10.6363 6.86919 10.6989 6.8022C10.7615 6.73521 10.8293 6.66315 10.9075 6.57484C11.0988 6.37184 11.338 6.12418 11.6253 5.83186C11.9125 5.53954 12.2196 5.22625 12.5464 4.89197C12.8726 4.55364 13.2124 4.20313 13.5657 3.84043C13.919 3.47774 14.2667 3.12046 14.6089 2.76859C15.4053 1.94577 16.2461 1.08369 17.1315 0.182373H21.0373L20.9924 0.314324C20.9716 0.363044 20.9497 0.415821 20.9246 0.475706C20.8965 0.541504 20.8738 0.609388 20.8568 0.678706C20.7754 0.923321 20.6701 1.22985 20.5439 1.59728C20.4176 1.96471 20.2622 2.37883 20.0911 2.83863C19.9304 3.27982 19.7618 3.7501 19.5851 4.24948L19.0489 5.77198C18.8681 6.28557 18.6845 6.79713 18.4981 7.30666C18.3117 7.81619 18.1378 8.30609 17.9765 8.77638C17.5842 9.87393 17.1916 10.9762 16.7987 12.0833H12.6904L14.3825 7.33609C13.5667 8.12035 12.776 8.86976 12.0102 9.58432C11.6889 9.89762 11.3544 10.216 11.0066 10.5394C10.6589 10.8629 10.3216 11.1789 9.99471 11.4874C9.66714 11.796 9.35418 12.0876 9.05581 12.3624C8.75745 12.6371 8.49839 12.877 8.27861 13.082L7.98336 12.2517C7.87764 11.9533 7.77333 11.6448 7.6704 11.3261C7.56747 11.0073 7.45932 10.689 7.34595 10.3709C7.23537 10.0522 7.13106 9.74604 7.03299 9.45237C6.79097 8.76758 6.54753 8.06723 6.30272 7.35132C6.14137 7.79183 5.97027 8.27192 5.78945 8.7916C5.62809 9.23211 5.44692 9.73656 5.24593 10.305C5.04493 10.8734 4.83525 11.4688 4.61686 12.0914H0.508606C0.710297 11.5216 0.916527 10.9404 1.12726 10.3476Z" fill="url(#paint0_linear_1_12032)"/>
<path d="M23.2166 11.8976C22.9611 11.779 22.7346 11.6087 22.552 11.3983C22.3771 11.1953 22.2576 10.9527 22.2047 10.6928C22.1492 10.4213 22.1727 10.1401 22.2725 9.88083C22.4116 9.47009 22.5677 9.03026 22.7409 8.56133C22.8817 8.15533 23.0413 7.70873 23.2166 7.20935C23.3919 6.70997 23.5765 6.19435 23.7685 5.66655C23.9395 5.16582 24.1106 4.67862 24.2817 4.20495C24.4528 3.73128 24.6037 3.30735 24.7345 2.93315C24.8854 2.50212 25.0315 2.0907 25.1727 1.69891L23.4513 0.185547H38.2975L37.271 3.06612L28.7978 3.08033H27.0755L28.39 4.23235L28.1333 4.93169H36.6064C36.4673 5.31333 36.3237 5.71493 36.1756 6.1365C36.0275 6.55806 35.8845 6.96 35.7468 7.34232H25.9405L26.9524 8.23957L26.606 9.2089H35.0791L34.0516 12.0895H24.0981C23.793 12.0926 23.4913 12.0269 23.2166 11.8976Z" fill="url(#paint1_linear_1_12032)"/>
<path d="M38.8264 0.186523H55.4857L54.4592 3.06709L49.3839 3.0813H47.481L48.9301 4.35716C48.6394 5.16916 48.3376 6.01059 48.0246 6.88146C47.8931 7.25194 47.7523 7.64881 47.601 8.06902C47.4498 8.48923 47.2943 8.92263 47.1337 9.3672C46.973 9.81177 46.8113 10.2645 46.6506 10.7243C46.49 11.184 46.3273 11.6378 46.1666 12.0894H42.0583C42.2399 11.5813 42.4238 11.0629 42.6102 10.5345C42.7966 10.006 42.9827 9.48257 43.1684 8.96424C43.3547 8.44524 43.5359 7.94146 43.7119 7.45291C43.8882 6.96469 44.0519 6.49881 44.2032 6.05932C44.5663 5.03281 44.9238 4.0354 45.2757 3.06709H40.2004L40.6542 1.79632L38.8264 0.186523Z" fill="url(#paint2_linear_1_12032)"/>
<path d="M45.8495 16.6884C46.4239 16.0415 47.0558 15.329 47.745 14.5508C48.4342 13.7726 49.1516 12.9644 49.8972 12.126C50.6421 11.2883 51.3949 10.4407 52.1558 9.5834L54.3528 7.10781C56.015 5.2463 57.7117 3.34081 59.4427 1.39133L58.0719 0.186523H64.566C64.767 1.27393 64.9635 2.35659 65.1555 3.43453C65.2354 3.89533 65.3234 4.3778 65.4194 4.88192C65.5154 5.38603 65.6086 5.89353 65.699 6.40442C65.7901 6.91395 65.8833 7.41603 65.9786 7.91068C66.0738 8.40532 66.1618 8.87323 66.2425 9.31442C66.3134 9.72042 66.3781 10.095 66.4397 10.4228C66.5012 10.7506 66.5544 11.043 66.6045 11.2977C66.6556 11.5921 66.7088 11.856 66.7558 12.0915H61.5L58.0719 9.06169H61.9225L61.0618 4.35919V4.37746L59.9445 5.65534C58.7462 7.03778 57.5681 8.39483 56.4101 9.72651C55.917 10.2936 55.4033 10.8863 54.8692 11.5048C54.3351 12.1233 53.803 12.7343 53.2731 13.3379C52.7445 13.9469 52.2337 14.5373 51.7406 15.1091C51.2475 15.6808 50.7892 16.2073 50.3656 16.6884H45.8495Z" fill="url(#paint3_linear_1_12032)"/>
<path d="M66.9039 12.0915C67.1049 11.5319 67.3111 10.9537 67.5226 10.3569C67.734 9.76003 67.9457 9.16761 68.1579 8.57959C68.3665 7.99157 68.5727 7.41335 68.7765 6.84495C68.9803 6.27655 69.1715 5.74266 69.3503 5.24328C69.7634 4.05844 70.1713 2.90811 70.574 1.79228L68.7462 0.190613H75.256L73.6546 4.64342H79.7116C79.8507 4.23133 80.0069 3.7915 80.18 3.32392C80.3191 2.91183 80.4878 2.44121 80.686 1.91205C80.8842 1.3829 81.0928 0.8101 81.3119 0.193656H85.4191C85.1576 0.93799 84.8961 1.67759 84.6346 2.41245C84.3731 3.14731 84.1165 3.86491 83.8647 4.56527C83.6122 5.26562 83.373 5.93653 83.147 6.57801C82.9209 7.21949 82.7071 7.81969 82.5054 8.37862C82.0311 9.69068 81.5877 10.93 81.1753 12.0966H77.0691L78.6851 7.52906H70.9819L72.2338 8.64557C72.1221 8.93992 72.0074 9.26268 71.8864 9.6159C71.7744 9.9292 71.6457 10.2943 71.5004 10.7111C71.355 11.1279 71.1909 11.588 71.0079 12.0915H66.9039Z" fill="url(#paint4_linear_1_12032)"/>
<path d="M86.5677 11.3099C86.3307 11.0493 86.1761 10.7275 86.1226 10.3834C86.0692 10.0393 86.119 9.68746 86.2662 9.37027L88.5613 2.88949C88.8256 2.14807 89.309 1.49909 89.9509 1.02392L88.9839 0.18654H100.281C100.678 0.154056 101.077 0.206966 101.45 0.341513C101.824 0.47606 102.162 0.688945 102.442 0.965047C102.67 1.22812 102.819 1.54689 102.874 1.88683C102.93 2.22677 102.888 2.57491 102.754 2.89355L100.459 9.37433C100.313 9.77885 100.101 10.1584 99.8334 10.4989C99.5741 10.8303 99.2633 11.1203 98.9123 11.3587C98.5628 11.595 98.1783 11.7782 97.772 11.9017C97.3519 12.0306 96.9137 12.0953 96.4732 12.0935H88.7251C88.3288 12.1212 87.931 12.0655 87.5587 11.9303C87.1865 11.7951 86.8485 11.5835 86.5677 11.3099ZM90.4955 8.98863C90.4444 9.1358 90.5153 9.20888 90.7041 9.20888H96.1289C96.2041 9.21698 96.2798 9.19946 96.3432 9.15929C96.4065 9.11912 96.4536 9.0588 96.4763 8.98863L98.5002 3.28635C98.5607 3.14019 98.5002 3.06711 98.3187 3.06711H92.8814L92.8511 3.08132H90.6916L92.1417 4.35616L90.4955 8.98863Z" fill="url(#paint5_linear_1_12032)"/>
<path d="M103.893 12.0914L107.544 1.81965L105.686 0.188547H118.616C119.013 0.159922 119.412 0.216021 119.785 0.352933C120.158 0.489845 120.496 0.704272 120.775 0.98126C121.007 1.23875 121.159 1.55521 121.212 1.89353C121.266 2.23186 121.219 2.57804 121.078 2.89149L120.171 5.47872C119.873 6.24674 119.347 6.91148 118.661 7.38895C117.811 7.94765 116.8 8.22559 115.776 8.18167H115.7C116.405 9.28938 117.101 10.3622 117.786 11.4002C118.069 11.8414 118.366 12.3019 118.677 12.7816L119.599 14.2027C119.901 14.6682 120.191 15.1141 120.467 15.5404C120.744 15.9667 120.994 16.3511 121.215 16.6935H116.035C115.923 16.4976 115.773 16.2255 115.581 15.8815C115.389 15.5374 115.176 15.1415 114.939 14.7051C114.703 14.2686 114.451 13.8048 114.184 13.3095C113.917 12.8141 113.653 12.3269 113.391 11.8479C112.765 10.7212 112.096 9.50117 111.383 8.18776H109.388L108.001 12.0914H103.893ZM110.795 4.28102L110.371 5.44929H115.808C115.881 5.45657 115.955 5.43859 116.016 5.39851C116.077 5.35843 116.121 5.29879 116.141 5.23005L116.836 3.28734C116.896 3.14118 116.831 3.06911 116.64 3.06911L111.215 3.08332H109.419L110.795 4.28102Z" fill="url(#paint6_linear_1_12032)"/>
<path d="M122.909 11.2957C122.674 11.0363 122.52 10.7166 122.466 10.3747C122.413 10.0328 122.461 9.68306 122.606 9.3672L122.984 8.30957H127.092L126.835 8.98556C126.784 9.13172 126.855 9.20582 127.044 9.20582H132.044C132.119 9.21387 132.195 9.19631 132.258 9.15613C132.321 9.11595 132.368 9.05566 132.391 8.98556L132.859 7.66606C132.919 7.52904 132.859 7.46306 132.678 7.46306H126.716C126.319 7.49149 125.919 7.43531 125.546 7.29841C125.173 7.16151 124.835 6.94719 124.556 6.67035C124.322 6.41048 124.169 6.09076 124.115 5.749C124.062 5.40724 124.11 5.05774 124.254 4.74185L124.904 2.88947C125.104 2.3392 125.424 1.83794 125.843 1.42077L124.439 0.186522H136.199C136.596 0.154191 136.995 0.207178 137.368 0.34172C137.741 0.476262 138.08 0.689065 138.359 0.965029C138.593 1.22477 138.747 1.54384 138.802 1.88519C138.858 2.22655 138.812 2.57619 138.672 2.89353L138.294 3.95218H134.186L134.413 3.28735C134.473 3.14322 134.413 3.07116 134.232 3.07116H129.22L129.19 3.08537H127.271L128.54 4.19273L128.39 4.59873C128.359 4.74387 128.429 4.81695 128.598 4.81695H134.545C134.944 4.78745 135.344 4.8418 135.72 4.97631C136.095 5.11081 136.436 5.32232 136.72 5.59648C136.954 5.85671 137.106 6.17639 137.159 6.51799C137.213 6.85959 137.165 7.20893 137.021 7.52498L136.373 9.37634C136.091 10.1677 135.573 10.8588 134.884 11.3607C134.191 11.8551 133.35 12.1134 132.491 12.0955H125.059C124.662 12.122 124.264 12.0642 123.893 11.9261C123.522 11.788 123.186 11.5729 122.909 11.2957Z" fill="url(#paint7_linear_1_12032)"/>
<path d="M141.009 11.8976C140.753 11.7793 140.526 11.609 140.344 11.3983C140.169 11.1953 140.05 10.9527 139.997 10.6928C139.941 10.4213 139.964 10.14 140.065 9.88083C140.204 9.4701 140.36 9.03026 140.533 8.56133C140.672 8.15939 140.831 7.70873 141.009 7.20935C141.187 6.70997 141.371 6.1957 141.56 5.66655C141.732 5.16582 141.903 4.67862 142.074 4.20495C142.245 3.73128 142.396 3.30735 142.527 2.93315C142.678 2.50178 142.823 2.0907 142.965 1.69891L141.242 0.185547H156.09L155.062 3.06612L146.589 3.08033H144.869L146.182 4.23235L145.925 4.93169H154.4C154.26 5.31333 154.117 5.71493 153.969 6.1365C153.821 6.55806 153.677 6.95966 153.538 7.3413H143.731L144.743 8.23856L144.396 9.20788H152.869L151.843 12.0885H141.889C141.584 12.092 141.283 12.0267 141.009 11.8976Z" fill="url(#paint8_linear_1_12032)"/>
<defs>
<linearGradient id="paint0_linear_1_12032" x1="2.82835" y1="-0.359411" x2="10.2144" y2="14.9079" gradientUnits="userSpaceOnUse">
<stop stop-color="#C8A23D"/>
<stop offset="0.1" stop-color="#D5B54F"/>
<stop offset="0.293" stop-color="#F7E57D"/>
<stop offset="0.31" stop-color="#EDD770"/>
<stop offset="0.365" stop-color="#D3B14C"/>
<stop offset="0.42" stop-color="#BE922F"/>
<stop offset="0.473" stop-color="#AF7D1B"/>
<stop offset="0.525" stop-color="#A7700F"/>
<stop offset="0.573" stop-color="#A46C0B"/>
<stop offset="0.635" stop-color="#A97412"/>
<stop offset="0.733" stop-color="#B98B28"/>
<stop offset="0.855" stop-color="#D2B04B"/>
<stop offset="0.995" stop-color="#F5E37B"/>
<stop offset="1" stop-color="#F7E57D"/>
</linearGradient>
<linearGradient id="paint1_linear_1_12032" x1="23.4812" y1="0.149835" x2="31.8809" y2="12.7233" gradientUnits="userSpaceOnUse">
<stop stop-color="#C8A23D"/>
<stop offset="0.1" stop-color="#D5B54F"/>
<stop offset="0.293" stop-color="#F7E57D"/>
<stop offset="0.31" stop-color="#EDD770"/>
<stop offset="0.365" stop-color="#D3B14C"/>
<stop offset="0.42" stop-color="#BE922F"/>
<stop offset="0.473" stop-color="#AF7D1B"/>
<stop offset="0.525" stop-color="#A7700F"/>
<stop offset="0.573" stop-color="#A46C0B"/>
<stop offset="0.635" stop-color="#A97412"/>
<stop offset="0.733" stop-color="#B98B28"/>
<stop offset="0.855" stop-color="#D2B04B"/>
<stop offset="0.995" stop-color="#F5E37B"/>
<stop offset="1" stop-color="#F7E57D"/>
</linearGradient>
<linearGradient id="paint2_linear_1_12032" x1="39.9259" y1="-1.08709" x2="46.8143" y2="9.92895" gradientUnits="userSpaceOnUse">
<stop stop-color="#C8A23D"/>
<stop offset="0.1" stop-color="#D5B54F"/>
<stop offset="0.293" stop-color="#F7E57D"/>
<stop offset="0.31" stop-color="#EDD770"/>
<stop offset="0.365" stop-color="#D3B14C"/>
<stop offset="0.42" stop-color="#BE922F"/>
<stop offset="0.473" stop-color="#AF7D1B"/>
<stop offset="0.525" stop-color="#A7700F"/>
<stop offset="0.573" stop-color="#A46C0B"/>
<stop offset="0.635" stop-color="#A97412"/>
<stop offset="0.733" stop-color="#B98B28"/>
<stop offset="0.855" stop-color="#D2B04B"/>
<stop offset="0.995" stop-color="#F5E37B"/>
<stop offset="1" stop-color="#F7E57D"/>
</linearGradient>
<linearGradient id="paint3_linear_1_12032" x1="52.7067" y1="6.39123" x2="61.1766" y2="17.505" gradientUnits="userSpaceOnUse">
<stop stop-color="#C8A23D"/>
<stop offset="0.1" stop-color="#D5B54F"/>
<stop offset="0.293" stop-color="#F7E57D"/>
<stop offset="0.31" stop-color="#EDD770"/>
<stop offset="0.365" stop-color="#D3B14C"/>
<stop offset="0.42" stop-color="#BE922F"/>
<stop offset="0.473" stop-color="#AF7D1B"/>
<stop offset="0.525" stop-color="#A7700F"/>
<stop offset="0.573" stop-color="#A46C0B"/>
<stop offset="0.635" stop-color="#A97412"/>
<stop offset="0.733" stop-color="#B98B28"/>
<stop offset="0.855" stop-color="#D2B04B"/>
<stop offset="0.995" stop-color="#F5E37B"/>
<stop offset="1" stop-color="#F7E57D"/>
</linearGradient>
<linearGradient id="paint4_linear_1_12032" x1="68.7925" y1="0.131083" x2="75.9041" y2="14.1551" gradientUnits="userSpaceOnUse">
<stop stop-color="#C8A23D"/>
<stop offset="0.1" stop-color="#D5B54F"/>
<stop offset="0.293" stop-color="#F7E57D"/>
<stop offset="0.31" stop-color="#EDD770"/>
<stop offset="0.365" stop-color="#D3B14C"/>
<stop offset="0.42" stop-color="#BE922F"/>
<stop offset="0.473" stop-color="#AF7D1B"/>
<stop offset="0.525" stop-color="#A7700F"/>
<stop offset="0.573" stop-color="#A46C0B"/>
<stop offset="0.635" stop-color="#A97412"/>
<stop offset="0.733" stop-color="#B98B28"/>
<stop offset="0.855" stop-color="#D2B04B"/>
<stop offset="0.995" stop-color="#F5E37B"/>
<stop offset="1" stop-color="#F7E57D"/>
</linearGradient>
<linearGradient id="paint5_linear_1_12032" x1="88.2517" y1="1.02379" x2="95.6737" y2="13.0704" gradientUnits="userSpaceOnUse">
<stop stop-color="#C8A23D"/>
<stop offset="0.1" stop-color="#D5B54F"/>
<stop offset="0.293" stop-color="#F7E57D"/>
<stop offset="0.31" stop-color="#EDD770"/>
<stop offset="0.365" stop-color="#D3B14C"/>
<stop offset="0.42" stop-color="#BE922F"/>
<stop offset="0.473" stop-color="#AF7D1B"/>
<stop offset="0.525" stop-color="#A7700F"/>
<stop offset="0.573" stop-color="#A46C0B"/>
<stop offset="0.635" stop-color="#A97412"/>
<stop offset="0.733" stop-color="#B98B28"/>
<stop offset="0.855" stop-color="#D2B04B"/>
<stop offset="0.995" stop-color="#F5E37B"/>
<stop offset="1" stop-color="#F7E57D"/>
</linearGradient>
<linearGradient id="paint6_linear_1_12032" x1="105.228" y1="0.709664" x2="121.96" y2="15.7866" gradientUnits="userSpaceOnUse">
<stop stop-color="#C8A23D"/>
<stop offset="0.1" stop-color="#D5B54F"/>
<stop offset="0.293" stop-color="#F7E57D"/>
<stop offset="0.31" stop-color="#EDD770"/>
<stop offset="0.365" stop-color="#D3B14C"/>
<stop offset="0.42" stop-color="#BE922F"/>
<stop offset="0.473" stop-color="#AF7D1B"/>
<stop offset="0.525" stop-color="#A7700F"/>
<stop offset="0.573" stop-color="#A46C0B"/>
<stop offset="0.635" stop-color="#A97412"/>
<stop offset="0.733" stop-color="#B98B28"/>
<stop offset="0.855" stop-color="#D2B04B"/>
<stop offset="0.995" stop-color="#F5E37B"/>
<stop offset="1" stop-color="#F7E57D"/>
</linearGradient>
<linearGradient id="paint7_linear_1_12032" x1="123.985" y1="0.69006" x2="131.942" y2="12.9602" gradientUnits="userSpaceOnUse">
<stop stop-color="#C8A23D"/>
<stop offset="0.1" stop-color="#D5B54F"/>
<stop offset="0.293" stop-color="#F7E57D"/>
<stop offset="0.31" stop-color="#EDD770"/>
<stop offset="0.365" stop-color="#D3B14C"/>
<stop offset="0.42" stop-color="#BE922F"/>
<stop offset="0.473" stop-color="#AF7D1B"/>
<stop offset="0.525" stop-color="#A7700F"/>
<stop offset="0.573" stop-color="#A46C0B"/>
<stop offset="0.635" stop-color="#A97412"/>
<stop offset="0.733" stop-color="#B98B28"/>
<stop offset="0.855" stop-color="#D2B04B"/>
<stop offset="0.995" stop-color="#F5E37B"/>
<stop offset="1" stop-color="#F7E57D"/>
</linearGradient>
<linearGradient id="paint8_linear_1_12032" x1="141.273" y1="0.149838" x2="149.672" y2="12.7231" gradientUnits="userSpaceOnUse">
<stop stop-color="#C8A23D"/>
<stop offset="0.1" stop-color="#D5B54F"/>
<stop offset="0.293" stop-color="#F7E57D"/>
<stop offset="0.31" stop-color="#EDD770"/>
<stop offset="0.365" stop-color="#D3B14C"/>
<stop offset="0.42" stop-color="#BE922F"/>
<stop offset="0.473" stop-color="#AF7D1B"/>
<stop offset="0.525" stop-color="#A7700F"/>
<stop offset="0.573" stop-color="#A46C0B"/>
<stop offset="0.635" stop-color="#A97412"/>
<stop offset="0.733" stop-color="#B98B28"/>
<stop offset="0.855" stop-color="#D2B04B"/>
<stop offset="0.995" stop-color="#F5E37B"/>
<stop offset="1" stop-color="#F7E57D"/>
</linearGradient>
</defs>
</svg>
