<svg width="356" height="39" viewBox="0 0 356 39" fill="none" xmlns="http://www.w3.org/2000/svg">
<path d="M2.25161 23.9917L3.69646 19.9754C4.17844 18.6366 4.6458 17.2968 5.07248 16.025C5.49916 14.7532 5.96655 13.522 6.37967 12.3842C7.32901 9.70663 8.25122 7.02901 9.13171 4.51181L5.00365 0.869977H18.3924L23.3468 16.6685C23.4397 16.5503 23.5408 16.4384 23.6493 16.3336L24.0342 15.9448L24.5162 15.4231C24.9429 14.9541 25.4927 14.3918 26.1541 13.7361C26.8155 13.0805 27.5301 12.3973 28.2457 11.5935L30.5711 9.19708L32.9236 6.74786C34.759 4.87349 36.6764 2.91117 38.676 0.86087H47.5518L47.4412 1.1552C47.4128 1.28745 47.3617 1.4141 47.2899 1.52975C47.2251 1.68131 47.1745 1.8383 47.1386 1.99872C46.9456 2.54783 46.712 3.24411 46.4084 4.08757C46.1048 4.93104 45.7751 5.86784 45.3756 6.91228C44.976 7.95671 44.6328 8.98698 44.2343 10.1248C43.8358 11.2626 43.4216 12.4278 43.0095 13.593C42.5975 14.7583 42.1697 15.9357 41.7576 17.0867C41.3456 18.2377 40.9324 19.3633 40.5611 20.4362L37.8779 27.9735H28.5201L32.3738 17.1557C30.5158 18.9502 28.7131 20.6504 26.9793 22.2835C26.249 22.994 25.4791 23.7166 24.6946 24.4525L22.3828 26.6216L20.2504 28.6029L18.5166 30.2492L17.8562 28.3481C17.608 27.6792 17.3743 27.0093 17.126 26.247C16.8777 25.4848 16.644 24.8007 16.3832 24.078C16.1224 23.3553 15.9012 22.6448 15.6675 21.9759C15.1167 20.423 14.5659 18.8162 14.0161 17.1963C13.6447 18.2001 13.2587 19.2851 12.8467 20.4768C12.4346 21.6684 12.0621 22.6316 11.6073 23.9166C11.1524 25.2016 10.6684 26.5952 10.2313 27.934H0.874542C1.27306 26.6693 1.76964 25.3437 2.25161 23.9917Z" fill="white"/>
<path d="M52.5603 27.5655C51.9763 27.2985 51.4596 26.9101 51.0466 26.4278C50.65 25.9651 50.3801 25.4124 50.2621 24.821C50.1279 24.2083 50.1804 23.5709 50.4133 22.9869C50.7263 22.05 51.0873 21.0462 51.4733 19.9754L52.5603 16.8958C52.9588 15.758 53.3855 14.5796 53.8122 13.3748C54.2389 12.17 54.5967 11.1255 54.9816 10.0547C55.3666 8.98388 55.7255 8.00544 56.0145 7.14878C56.3034 6.29212 56.6884 5.23447 57.018 4.3372L53.0966 0.896332H86.9066L84.5666 7.45736H61.3527L64.3394 10.1349L63.7615 11.7274H83.0257C82.7128 12.5983 82.3789 13.522 82.0493 14.405C81.7196 15.2881 81.3879 16.2797 81.0718 17.1455H58.7665L61.0783 19.1938L60.2802 21.4035H79.5445L77.2056 27.9635H54.5675C53.8757 27.985 53.1883 27.8487 52.5603 27.5655Z" fill="white"/>
<path d="M88.1167 0.856842H126.055L123.743 7.48378H107.822L111.125 10.3887C110.464 12.2502 109.749 14.1645 109.061 16.1458C108.772 16.9893 108.441 17.8865 108.098 18.8234C107.754 19.7602 107.409 20.765 107.038 21.7821C106.666 22.7991 106.295 23.8172 105.937 24.8748C105.579 25.9324 105.194 26.9505 104.836 27.9807H95.4766L96.7285 24.4333L98.0075 20.8716C98.4248 19.6942 98.8338 18.5371 99.2458 17.4308C99.6579 16.3244 100.017 15.2627 100.361 14.2578C101.186 11.9152 101.998 9.65279 102.796 7.44314H91.2411L92.2729 4.5514L88.1167 0.856842Z" fill="white"/>
<path d="M104.107 38.4372L108.427 33.5774L113.33 28.0476C115.037 26.1465 116.743 24.2059 118.477 22.2622L123.484 16.6126C127.273 12.3821 131.136 8.04437 135.071 3.59935L131.947 0.921783H146.74C147.193 3.39838 147.652 5.86179 148.116 8.312C148.309 9.36963 148.501 10.4668 148.721 11.6189C148.941 12.7709 149.148 13.9219 149.354 15.0699C149.561 16.2178 149.781 17.3729 150.001 18.5107C150.221 19.6485 150.418 20.693 150.593 21.6968C150.767 22.7006 150.906 23.4771 151.047 24.2272L151.419 26.2217C151.542 26.8916 151.652 27.5605 151.762 28.0294H139.788L131.999 21.0675H140.762L138.808 10.3572L136.267 13.2845C133.515 16.431 130.859 19.5237 128.217 22.5494L124.708 26.5658L120.993 30.8094L117.498 34.8268C116.383 36.1656 115.338 37.3298 114.375 38.4149L104.107 38.4372Z" fill="white"/>
<path d="M152.062 27.9674C152.53 26.6287 153.001 25.3701 153.438 23.9511L154.814 19.9347C155.295 18.5959 155.764 17.2572 156.191 15.9854C156.617 14.7136 157.085 13.4813 157.498 12.3435C158.447 9.66596 159.369 6.98841 160.25 4.47121L156.122 0.829376H170.955L167.309 10.9641H181.069C181.399 10.0273 181.743 9.02348 182.143 7.95265C182.542 6.88183 182.844 5.94395 183.299 4.73915C183.754 3.53434 184.22 2.23515 184.675 0.829376H194.032C193.44 2.51631 192.849 4.20326 192.242 5.877C191.636 7.55073 191.059 9.18387 190.495 10.7906C189.931 12.3974 189.381 13.9097 188.857 15.3693C188.333 16.8288 187.854 18.194 187.397 19.4658C186.31 22.4651 185.305 25.2767 184.371 27.941H175.015L178.689 17.5252H161.35L164.213 20.0687C163.951 20.7376 163.691 21.4745 163.415 22.2773L162.548 24.7814C162.204 25.7182 161.832 26.7758 161.419 27.941L152.062 27.9674Z" fill="white"/>
<path d="M196.853 26.2268C196.314 25.6328 195.962 24.9001 195.84 24.1167C195.718 23.3332 195.831 22.5321 196.165 21.8095L201.394 7.08186C202.003 5.3947 203.102 3.91586 204.559 2.82492L202.357 0.923832H228.089C228.993 0.850008 229.902 0.969957 230.754 1.27528C231.605 1.5806 232.377 2.06383 233.015 2.69092C233.533 3.29049 233.873 4.01606 233.999 4.78968C234.126 5.5633 234.033 6.35577 233.731 7.08186L228.502 21.8095C228.184 22.7265 227.719 23.5893 227.126 24.3663C226.53 25.1214 225.82 25.7848 225.021 26.3344C224.226 26.8765 223.349 27.2921 222.42 27.5656C221.463 27.8619 220.465 28.0112 219.461 28.0082H201.782C200.877 28.0758 199.967 27.9515 199.116 27.644C198.265 27.3365 197.493 26.853 196.853 26.2268ZM205.797 20.9386C205.687 21.2736 205.797 21.4461 206.278 21.4461H218.663C218.835 21.4653 219.007 21.4248 219.151 21.3319C219.294 21.239 219.4 21.0997 219.448 20.9386L224.057 7.9527C224.194 7.61775 224.057 7.45741 223.639 7.45741H206.301L209.603 10.3623L205.797 20.9386Z" fill="white"/>
<path d="M236.313 27.9674L244.638 4.56562L240.399 0.856817H269.846C270.753 0.790904 271.664 0.91851 272.515 1.23075C273.366 1.54299 274.137 2.03228 274.773 2.66448C275.3 3.25145 275.645 3.97218 275.766 4.74249C275.888 5.5128 275.782 6.3009 275.461 7.01478L273.397 12.9018C272.713 14.6491 271.516 16.1623 269.955 17.2531C268.019 18.5242 265.715 19.1578 263.382 19.0609H263.217C264.814 21.577 266.396 24.0272 267.964 26.384C268.597 27.3879 269.34 28.4455 269.987 29.5306L272.095 32.7725L274.077 35.8124C274.696 36.7898 275.274 37.6597 275.77 38.49H263.981C263.724 38.0434 263.381 37.4273 262.949 36.6417L261.489 33.9641C260.938 32.9603 260.374 31.9026 259.769 30.778C259.163 29.6533 258.557 28.545 257.952 27.4447C256.576 24.8869 255.007 22.0896 253.384 19.1167H248.843L245.678 28.0202L236.313 27.9674ZM252.027 10.1613L251.064 12.8389H263.448C263.615 12.8543 263.783 12.8119 263.921 12.7191C264.059 12.6263 264.16 12.489 264.204 12.3314L265.787 7.91307C265.925 7.57812 265.787 7.41777 265.347 7.41777H248.84L252.027 10.1613Z" fill="white"/>
<path d="M279.622 26.2268C279.09 25.6345 278.742 24.9067 278.62 24.1289C278.498 23.3511 278.607 22.5556 278.934 21.8358L279.801 19.4262H289.157L288.566 20.966C288.462 21.2999 288.566 21.4735 289.048 21.4735H300.442C300.631 21.4961 300.822 21.4457 300.974 21.333C301.126 21.2203 301.226 21.0543 301.254 20.8706L302.327 17.8581C302.464 17.5536 302.327 17.3901 301.91 17.3901H288.319C287.414 17.4547 286.506 17.3264 285.657 17.0142C284.809 16.702 284.04 16.2134 283.406 15.5824C282.871 14.9944 282.521 14.2687 282.399 13.4922C282.277 12.7158 282.387 11.9215 282.717 11.2047L284.191 6.9874C284.647 5.73532 285.374 4.59311 286.323 3.63791L283.131 0.826342H309.923C310.827 0.752999 311.736 0.873302 312.587 1.17878C313.439 1.48426 314.211 1.96749 314.849 2.59448C315.383 3.18566 315.733 3.91198 315.86 4.68916C315.987 5.46633 315.884 6.26251 315.565 6.98536L314.711 9.39499H305.382L305.891 7.88265C306.028 7.5477 305.891 7.38729 305.473 7.38729H289.695L292.584 9.91767L292.24 10.8414C292.171 11.1763 292.323 11.3367 292.722 11.3367H306.276C307.185 11.2681 308.098 11.3917 308.953 11.699C309.808 12.0063 310.585 12.49 311.23 13.117C311.761 13.7075 312.107 14.4331 312.229 15.2084C312.351 15.9838 312.243 16.7769 311.918 17.4947L310.432 21.712C309.798 23.518 308.618 25.0954 307.047 26.2379C305.453 27.3723 303.517 27.9606 301.543 27.9106H284.614C283.706 28.0021 282.789 27.8986 281.926 27.6077C281.064 27.3168 280.277 26.8454 279.622 26.2268Z" fill="white"/>
<path d="M320.862 27.5655C320.276 27.3018 319.759 26.9129 319.348 26.4277C318.935 25.9623 318.657 25.3978 318.544 24.7929C318.43 24.1879 318.485 23.5644 318.702 22.9868C319.032 22.05 319.376 21.0462 319.775 19.9754C320.175 18.9045 320.449 18.0336 320.862 16.8958C321.275 15.758 321.674 14.5796 322.114 13.3748C322.554 12.1699 322.885 11.1255 323.283 10.0547L324.316 7.14877L325.306 4.3372L321.385 0.896332H355.208L352.868 7.45735H329.682L332.681 10.1349L332.089 11.7274H351.354C351.024 12.5983 350.707 13.5219 350.377 14.405C350.048 15.288 349.717 16.2797 349.386 17.1455H327.068L329.363 19.1938L328.58 21.4034H347.844L345.505 27.9634H322.867C322.176 27.9862 321.489 27.8498 320.862 27.5655Z" fill="white"/>
</svg>
